<?xml version="1.0" standalone="no"?>
<!DOCTYPE svg PUBLIC "-//W3C//DTD SVG 20010904//EN"
 "http://www.w3.org/TR/2001/REC-SVG-20010904/DTD/svg10.dtd">
<svg version="1.0" xmlns="http://www.w3.org/2000/svg"
 width="480.000000pt" height="480.000000pt" viewBox="0 0 480.000000 480.000000"
 preserveAspectRatio="xMidYMid meet">
<metadata>
Created by potrace 1.11, written by Peter Selinger 2001-2013
</metadata>
<g transform="translate(0.000000,480.000000) scale(0.100000,-0.100000)"
fill="#000000" stroke="none">
<path d="M2885 4610 c-7 -11 34 -130 44 -128 27 3 41 -5 41 -22 0 -11 5 -20
10 -20 6 0 10 7 10 16 0 12 7 14 33 9 66 -15 182 -57 246 -89 118 -60 126 -66
126 -83 0 -13 8 -18 26 -18 23 -1 130 -75 180 -125 43 -43 93 -166 59 -145 -5
3 -10 1 -10 -4 0 -6 5 -11 11 -11 6 0 10 -10 9 -22 -1 -13 -2 -34 -1 -48 2
-40 175 -250 206 -250 4 0 4 24 0 53 -13 99 -10 127 14 127 30 0 251 -238 251
-270 -1 -12 -3 -11 -11 3 -18 31 -30 18 -12 -15 9 -18 16 -44 15 -58 -1 -14 5
-38 13 -55 l14 -30 -1 37 c-2 20 1 40 4 44 4 4 3 15 -3 25 -7 13 -6 19 1 19 6
0 13 -8 16 -17 3 -10 16 -40 29 -68 49 -103 75 -214 75 -321 0 -66 -14 -90
-35 -61 -7 10 -14 17 -17 17 -9 0 -8 -78 1 -144 11 -74 32 -109 53 -88 7 7 22
12 34 12 54 0 108 -207 123 -473 6 -98 11 -193 11 -212 0 -34 1 -34 27 -22 21
9 27 9 31 -1 7 -23 24 -12 18 12 -4 17 -1 26 10 30 22 8 26 8 19 -4 -3 -6 -2
-10 3 -10 4 0 14 16 22 35 16 40 21 42 44 16 10 -11 26 -19 37 -18 16 1 19 10
21 67 l2 65 5 -80 6 -80 9 132 c6 96 4 166 -5 255 -11 96 -15 114 -20 83 l-5
-40 -14 45 c-7 25 -12 55 -11 66 1 12 -7 58 -18 102 -12 44 -21 86 -21 94 1
27 32 -60 45 -125 16 -85 30 -101 22 -27 -7 74 -79 292 -134 408 -81 169 -184
337 -294 479 -35 46 -79 102 -97 126 -41 56 -350 367 -364 367 -10 0 -103 73
-123 97 -5 6 -55 41 -110 77 -140 92 -422 231 -519 256 -87 22 -141 26 -151
10z m1091 -645 c9 -8 11 -15 6 -15 -5 0 -15 7 -22 15 -7 8 -9 15 -6 15 4 0 14
-7 22 -15z m132 -136 c13 -16 20 -29 15 -29 -5 0 -19 14 -31 30 -29 39 -14 38
16 -1z m281 -380 c56 -83 52 -99 -4 -19 -41 58 -52 80 -41 80 2 0 23 -28 45
-61z m301 -1001 c0 -26 -4 -38 -8 -30 -8 12 -4 72 4 72 2 0 4 -19 4 -42z"/>
<path d="M2936 4455 c4 -8 10 -12 15 -9 11 6 2 24 -11 24 -5 0 -7 -7 -4 -15z"/>
<path d="M3005 4450 c3 -5 8 -10 11 -10 2 0 4 5 4 10 0 6 -5 10 -11 10 -5 0
-7 -4 -4 -10z"/>
<path d="M2960 4416 c0 -9 5 -16 10 -16 6 0 10 4 10 9 0 6 -4 13 -10 16 -5 3
-10 -1 -10 -9z"/>
<path d="M2150 4388 c-199 -41 -360 -89 -595 -178 -158 -59 -189 -73 -198 -87
-4 -7 -15 -13 -22 -13 -8 0 -15 -3 -15 -7 0 -5 -11 -9 -24 -9 -14 -1 -35 -11
-48 -23 -12 -12 -33 -24 -45 -27 -15 -4 -23 -14 -24 -28 0 -11 -3 -15 -6 -8
-2 6 -12 12 -20 12 -9 0 -13 -6 -10 -13 3 -8 2 -18 -2 -23 -17 -24 -80 -76
-93 -78 -28 -4 -80 -42 -139 -101 -16 -16 -35 -30 -41 -30 -7 0 -17 -9 -23
-20 -19 -38 -53 -80 -134 -165 -45 -47 -81 -92 -81 -102 0 -9 -11 -25 -25 -35
-32 -23 -54 -83 -55 -146 0 -42 3 -49 25 -57 14 -5 31 -7 39 -4 7 3 16 -2 19
-10 7 -17 -2 -51 -67 -255 -43 -132 -59 -201 -99 -431 -17 -95 -14 -106 46
-137 16 -8 27 -17 24 -19 -5 -5 -119 62 -166 98 -13 10 -28 18 -32 18 -16 0
-9 -35 16 -75 30 -48 33 -35 5 18 -21 39 -16 47 15 22 35 -27 126 -85 135 -85
5 0 31 -18 60 -41 28 -22 55 -38 58 -34 4 4 -2 13 -13 22 -60 44 -69 52 -59
53 6 0 37 -23 69 -51 32 -28 61 -47 66 -42 5 5 11 27 13 50 2 22 9 50 15 61 6
11 11 46 11 78 0 61 13 148 37 256 12 52 13 75 4 99 -16 45 -14 70 3 41 l13
-24 12 29 c6 16 13 42 14 58 1 17 5 32 8 35 3 3 20 50 38 105 61 184 140 345
171 345 4 0 10 -18 13 -41 3 -22 8 -43 11 -47 4 -3 20 11 37 31 17 20 35 37
41 37 5 0 -12 -24 -38 -53 -94 -103 -186 -314 -199 -457 -5 -53 -4 -52 16 27
12 45 26 80 31 77 4 -3 4 -13 -1 -22 -5 -9 -11 -43 -15 -75 -3 -32 -8 -62 -10
-66 -3 -4 -7 -27 -10 -50 -7 -61 -16 -63 -17 -5 -1 39 -4 28 -16 -51 -18 -133
-18 -320 1 -483 21 -175 21 -173 -10 -139 -15 18 -31 27 -40 23 -8 -3 -13 -2
-9 3 5 9 -52 67 -136 140 -41 35 -54 39 -45 15 7 -18 6 -18 -57 33 -16 13 -34
20 -39 17 -6 -4 -8 -2 -5 3 7 12 -20 26 -33 18 -4 -3 -10 2 -14 10 -3 8 -13
15 -21 15 -9 0 -13 -4 -10 -10 3 -5 -3 -10 -15 -10 -20 0 -20 -1 -5 -31 26
-50 9 -45 -20 6 -15 25 -29 44 -32 41 -6 -5 101 -208 135 -256 l24 -35 -30 35
c-17 19 -39 52 -48 73 -24 53 -36 46 -34 -20 4 -103 5 -102 -38 -60 -21 20
-41 37 -45 37 -26 0 21 -201 76 -327 22 -51 44 -93 49 -93 5 0 7 -4 4 -9 -3
-4 1 -16 8 -26 13 -18 15 -18 63 3 28 12 86 32 129 44 59 17 79 28 80 41 1 10
-20 41 -46 70 l-48 52 -67 -70 -67 -70 54 65 c29 36 57 68 63 72 6 5 5 12 -3
20 -6 6 -12 17 -12 22 0 6 13 -3 28 -20 15 -17 61 -63 103 -102 l76 -70 -66
-7 c-78 -8 -185 -41 -296 -89 -98 -44 -75 -48 26 -5 120 50 147 58 202 64 52
5 52 5 21 -9 -32 -15 -51 -45 -36 -55 12 -9 9 -54 -4 -58 -7 -2 -19 3 -28 12
-9 9 -16 13 -16 8 0 -4 -4 -14 -9 -22 -7 -10 -13 -11 -31 -1 -28 15 -80 22
-80 10 0 -5 -9 -12 -20 -15 -16 -5 -18 -9 -7 -19 19 -19 74 -34 148 -40 36 -3
72 -6 80 -8 9 -2 14 6 14 22 0 20 6 26 27 28 24 3 28 0 25 -20 -2 -22 0 -23
68 -22 131 3 165 7 165 21 0 7 -10 13 -22 13 -20 0 -68 38 -68 53 0 2 9 7 20
10 14 3 25 -1 33 -13 8 -14 15 -16 24 -8 16 13 45 -8 42 -31 -1 -9 3 -29 9
-44 15 -36 15 -50 0 -41 -7 5 -9 2 -5 -9 4 -11 2 -14 -7 -11 -7 3 -11 15 -9
27 3 17 0 23 -17 24 -14 1 -30 -12 -50 -39 -34 -46 -40 -40 -10 10 11 18 20
34 20 36 0 2 -26 -3 -57 -10 -131 -32 -387 -6 -506 51 -47 22 -56 29 -46 41 7
9 8 14 1 14 -18 0 -42 -12 -42 -20 0 -25 235 -110 304 -110 16 0 18 -3 7 -9
-7 -5 -11 -16 -7 -27 7 -23 68 -89 103 -111 44 -29 48 11 12 100 -9 22 -18 27
-48 29 -20 1 23 4 94 8 72 3 132 5 134 3 3 -2 -3 -20 -13 -41 -51 -106 -105
-332 -80 -332 5 0 10 21 11 48 1 26 12 72 23 102 16 43 19 48 15 20 -3 -19 -8
-55 -12 -79 -4 -31 -3 -42 5 -37 6 4 10 12 8 19 -1 7 -1 9 1 6 2 -4 14 -4 26
-2 17 5 13 -2 -18 -31 -46 -41 -38 -49 11 -11 18 14 35 25 39 25 11 0 -7 -73
-32 -127 -12 -30 -23 -64 -22 -76 0 -13 6 -2 15 25 8 26 18 49 23 52 10 7 23
-107 14 -130 -4 -12 -3 -15 5 -10 7 4 12 1 12 -9 0 -32 73 -245 93 -273 6 -8
5 -12 -4 -13 -8 0 -4 -4 9 -9 12 -5 22 -15 22 -21 0 -17 51 -102 57 -96 2 3
-16 42 -42 86 -25 45 -64 136 -88 204 -41 119 -42 125 -44 267 -2 135 0 147
19 168 26 26 48 29 49 5 0 -10 2 -26 4 -35 2 -10 -1 -20 -6 -24 -5 -3 -9 2 -9
11 0 9 -4 13 -10 10 -6 -3 -7 1 -4 9 3 9 2 16 -4 16 -11 0 -27 -94 -18 -108 2
-4 1 -25 -4 -46 -10 -44 -5 -63 16 -63 9 0 13 6 9 15 -4 10 0 13 14 9 12 -3
22 1 25 10 9 22 7 26 -9 19 -16 -6 -21 9 -6 18 16 10 34 -23 27 -51 -4 -16
-11 -44 -15 -63 l-9 -35 -2 40 c-1 22 -4 31 -7 20 -10 -46 -12 -48 -30 -34
-15 13 -15 12 -3 -11 8 -14 13 -30 12 -37 -3 -15 37 -57 46 -49 3 4 0 12 -6
18 -7 7 -12 21 -12 33 1 20 1 19 19 -2 l19 -23 31 35 c35 40 37 41 45 19 3 -8
2 -13 -3 -10 -14 9 -70 -58 -77 -90 -5 -26 -1 -36 22 -58 32 -29 54 -35 33 -9
-13 16 -12 17 4 4 10 -8 16 -20 13 -27 -3 -8 0 -11 9 -8 11 5 13 -2 10 -33 -2
-21 -1 -32 1 -25 7 14 34 16 34 2 0 -5 -6 -10 -12 -11 -29 -2 70 -27 107 -27
37 0 38 1 10 7 -39 8 -22 18 43 26 40 4 56 2 68 -10 14 -13 18 -13 38 2 13 10
21 24 18 32 -3 9 -1 12 5 8 7 -5 9 0 6 13 -4 15 2 22 23 30 60 22 60 22 34 29
-19 5 -26 14 -28 41 l-4 33 27 -17 c35 -23 44 -13 18 23 -24 31 -32 55 -20 59
21 6 28 0 22 -18 -5 -14 -2 -20 10 -20 9 0 14 4 11 8 -2 4 -1 14 5 22 7 12 9
10 9 -7 0 -14 6 -23 15 -23 8 0 15 5 15 10 0 6 -4 10 -10 10 -5 0 -10 9 -10
20 0 11 5 20 10 20 6 0 10 -6 10 -13 0 -8 7 -28 16 -45 17 -36 13 -49 -23 -63
-19 -7 -23 -14 -18 -32 5 -17 4 -18 -4 -7 -15 22 -24 5 -11 -20 6 -12 9 -24 6
-28 -3 -3 -6 0 -6 6 0 7 -4 12 -10 12 -5 0 -10 -6 -10 -14 0 -8 -11 -17 -24
-20 -28 -7 -89 -73 -81 -86 3 -6 -1 -7 -9 -4 -8 3 -19 -3 -26 -15 -12 -23 -35
-29 -27 -8 4 10 -2 13 -18 9 -12 -2 -32 1 -44 7 -18 10 -21 9 -21 -9 0 -12 7
-28 15 -36 19 -20 19 -34 0 -34 -9 0 -18 8 -21 18 -3 9 -10 28 -16 42 -9 22
-11 23 -19 7 -6 -9 -8 -21 -5 -26 7 -11 -28 -21 -43 -11 -7 3 -9 14 -6 22 4 9
2 19 -3 22 -14 8 -21 -25 -11 -52 6 -14 17 -22 33 -22 25 0 36 -16 36 -55 0
-25 24 -50 39 -41 21 13 21 -16 0 -61 -23 -53 -27 -97 -8 -119 9 -12 9 -13 -2
-9 -8 3 -39 50 -69 105 -30 56 -61 108 -68 118 -29 38 0 -33 38 -93 20 -33 48
-79 60 -102 15 -28 38 -50 70 -67 26 -14 53 -33 60 -42 26 -31 69 -44 154 -46
l86 -3 36 36 c35 35 37 36 64 22 25 -12 33 -12 64 1 58 24 101 63 140 125 20
33 36 64 36 70 0 6 -16 28 -37 48 -23 25 -31 39 -22 40 8 1 43 4 78 6 52 3 60
1 46 -9 -14 -10 -7 -12 44 -13 61 0 78 -8 132 -65 10 -11 22 -17 25 -13 4 4
14 2 21 -5 8 -6 33 -13 56 -15 23 -2 54 -8 69 -13 28 -9 199 -2 208 9 3 4 14
5 25 4 87 -13 115 -11 124 6 7 13 20 17 47 15 21 -2 44 2 51 8 8 6 13 7 12 2
-4 -21 2 -26 16 -14 12 10 15 9 15 -5 0 -17 1 -17 19 -1 11 10 22 13 25 8 3
-5 18 -13 32 -16 20 -5 32 -2 46 14 10 11 23 18 29 15 15 -10 47 5 52 23 4 15
5 15 6 -1 1 -25 84 -21 108 6 10 10 32 25 51 32 18 8 44 28 58 45 29 34 51 41
35 11 -10 -17 -7 -19 24 -19 19 0 39 6 46 14 6 8 15 11 20 8 5 -3 6 2 3 10 -6
16 20 24 29 9 2 -5 2 -2 0 5 -2 9 4 11 20 7 16 -5 18 -4 8 3 -11 8 -9 12 9 22
12 6 24 9 28 6 3 -3 0 -6 -6 -6 -7 0 -12 -4 -12 -9 0 -13 55 16 56 29 1 5 2
17 3 25 0 8 7 12 16 9 8 -4 15 -1 15 5 0 6 4 11 9 11 5 0 29 12 52 26 28 16
35 23 19 19 -24 -7 -24 -6 -5 7 11 8 32 15 46 16 14 1 37 6 50 11 20 8 16 9
-21 6 -25 -1 -63 -6 -85 -9 l-40 -6 35 16 c19 9 53 18 75 21 22 3 53 9 68 15
26 10 27 12 10 27 -10 9 -34 26 -53 38 -19 12 -46 33 -60 46 -14 13 -32 22
-40 20 -13 -4 -13 -3 0 6 10 7 19 6 29 -2 16 -14 15 -9 -19 56 -13 27 -26 44
-28 38 -4 -12 -41 2 -85 32 -28 19 -29 19 -48 -2 -23 -25 -33 -27 -25 -6 10
28 -9 15 -22 -14 -14 -31 -87 -66 -119 -58 -16 4 -15 6 4 12 12 4 29 17 37 30
10 15 22 22 34 18 10 -2 25 3 33 13 12 16 12 17 -1 9 -37 -23 -210 -15 -210 9
0 7 13 19 29 27 166 81 200 101 194 117 -4 14 -3 15 5 2 9 -12 17 -11 53 9 42
24 42 24 36 3 -7 -30 7 -28 21 3 13 29 16 84 4 102 -4 6 -21 13 -37 16 -27 4
-27 4 7 6 33 1 38 -2 44 -26 4 -15 3 -54 -3 -86 l-9 -59 36 5 c48 6 97 37 78
48 -11 7 -11 9 0 9 7 0 10 4 7 10 -3 5 1 10 9 10 10 0 13 6 9 16 -5 13 -2 15
15 10 18 -6 19 -4 12 28 -4 19 -5 37 -2 40 3 4 -1 6 -8 6 -7 0 -36 -21 -63
-47 -56 -53 -81 -43 -28 11 17 18 31 36 31 40 0 4 17 30 38 56 20 27 52 73 71
104 35 55 54 71 73 60 17 -11 1 -89 -29 -146 -35 -66 -40 -79 -18 -50 21 29
35 28 35 -3 0 -14 5 -25 11 -25 6 0 8 -7 5 -16 -4 -10 -2 -13 7 -8 22 13 66
59 67 69 0 6 9 16 20 23 31 19 106 140 136 218 35 91 52 202 63 409 9 157 23
235 44 235 4 0 19 -7 32 -16 23 -15 25 -15 31 1 10 25 -2 153 -16 170 -6 8
-13 32 -13 54 -1 21 -4 37 -6 35 -2 -2 -12 9 -22 25 -10 16 -28 31 -41 33 -20
3 -24 11 -31 63 -23 184 -68 353 -113 433 -28 47 -54 54 -78 20 l-15 -21 -11
27 c-5 15 -10 29 -10 31 0 2 -18 42 -40 89 -22 47 -40 88 -40 91 0 7 -70 126
-80 135 -3 3 -25 32 -49 65 -63 85 -171 183 -155 141 3 -8 12 -17 19 -20 7 -2
11 -13 9 -23 -4 -14 1 -18 21 -19 34 -2 42 -11 28 -33 -7 -11 -8 -23 -2 -32
10 -16 12 -35 2 -26 -3 4 -11 -1 -18 -10 -10 -14 -12 -9 -11 27 1 40 -1 44
-24 45 -14 1 -33 5 -42 8 -10 4 -25 9 -33 12 -19 6 -20 44 -1 51 8 3 12 12 9
20 -3 8 1 14 11 14 26 0 19 17 -17 39 -18 11 -44 32 -57 46 -34 36 -192 144
-211 145 -6 0 43 -137 63 -173 10 -21 3 -36 -11 -21 -5 5 -23 50 -40 99 -37
105 -43 116 -56 117 -5 1 -14 7 -20 13 -5 7 -20 15 -32 18 -22 5 -23 2 -23
-52 0 -60 12 -85 45 -95 27 -8 53 29 29 42 -11 6 -12 14 -6 31 7 21 12 13 37
-55 15 -44 34 -91 41 -106 13 -25 12 -28 -16 -45 -17 -9 -30 -21 -30 -25 0
-12 5 -10 59 23 66 41 78 35 46 -24 -28 -54 -29 -57 -16 -57 5 0 13 10 17 22
6 21 7 21 20 3 8 -11 12 -25 10 -32 -3 -7 9 -22 27 -34 18 -12 47 -36 65 -53
21 -19 33 -25 32 -16 -4 29 0 39 14 34 8 -3 21 4 29 16 16 23 63 25 61 3 -1
-7 -2 -26 -2 -43 -1 -16 -7 -30 -12 -30 -6 0 -8 10 -4 24 4 19 2 23 -15 22
-12 0 -21 -5 -20 -11 0 -5 -9 -12 -20 -17 -28 -10 -26 -19 11 -45 28 -20 33
-20 52 -7 30 20 68 19 64 -3 -2 -11 -13 -18 -25 -18 -39 -1 -38 -14 3 -58 68
-71 84 -96 78 -125 -5 -22 0 -30 26 -45 50 -30 98 -105 139 -217 7 -19 14 -66
15 -105 2 -78 27 -155 57 -173 18 -12 19 -9 20 50 l1 63 14 -60 c21 -92 20
-298 -1 -387 -9 -40 -21 -80 -25 -88 -14 -28 -35 -22 -49 15 -7 20 -17 32 -23
29 -6 -4 -8 2 -4 17 6 21 5 21 -4 6 -14 -21 -32 -13 -23 11 6 15 5 15 -10 3
-12 -9 -17 -28 -17 -60 0 -33 3 -42 10 -31 8 12 10 11 10 -7 0 -16 -4 -21 -15
-17 -9 4 -15 1 -15 -7 1 -17 29 -68 30 -53 0 14 67 16 92 3 11 -6 24 -24 30
-40 5 -16 14 -29 19 -29 16 0 11 -116 -6 -130 -8 -7 -15 -20 -15 -29 0 -23
-58 -47 -80 -33 -19 12 -40 -1 -40 -25 0 -7 -4 -13 -10 -13 -5 0 -10 -4 -10
-9 0 -13 73 -22 81 -10 9 16 21 -5 13 -25 -4 -10 3 -19 21 -28 22 -10 26 -17
23 -47 -2 -26 -9 -39 -25 -46 -13 -5 -23 -17 -23 -27 0 -9 -5 -18 -10 -20 -6
-2 -12 -13 -13 -26 0 -12 -4 -22 -8 -22 -4 0 -23 -15 -42 -34 -27 -26 -37 -31
-41 -20 -3 9 -1 12 4 9 6 -3 10 -1 10 4 0 6 -4 11 -9 11 -15 0 -10 68 5 81 12
10 12 14 2 21 -11 6 -11 10 0 17 12 7 11 13 -1 37 -9 17 -14 48 -12 76 3 38
-1 50 -21 69 l-24 23 -42 -40 c-23 -21 -47 -44 -53 -50 -23 -24 -93 -73 -132
-93 -39 -19 -42 -23 -31 -41 9 -15 21 -19 45 -16 18 3 36 -1 42 -8 18 -21 -3
-166 -24 -166 -6 0 -20 -16 -31 -35 -14 -27 -25 -35 -47 -35 -25 0 -27 -2 -17
-20 9 -18 8 -20 -15 -20 -14 0 -25 -4 -25 -10 0 -5 -9 -10 -21 -10 -11 0 -17
-5 -14 -10 3 -6 -1 -13 -10 -17 -10 -3 -21 0 -25 7 -9 15 -22 -2 -15 -22 7
-20 -10 -42 -26 -32 -8 5 -18 9 -23 9 -14 0 -16 35 -3 35 7 0 23 12 36 25 l23
25 -23 1 c-13 1 -27 1 -31 0 -5 0 -8 4 -8 10 0 6 7 8 16 5 11 -4 15 -2 12 6
-5 14 26 49 36 42 3 -2 4 -1 1 2 -2 4 2 19 10 35 8 15 15 37 15 48 0 11 9 35
19 53 11 18 23 49 26 68 8 45 -8 29 -25 -25 -7 -22 -15 -34 -18 -27 -2 7 1 26
7 42 7 23 7 30 -3 30 -23 0 -33 -21 -30 -68 2 -40 2 -42 -4 -12 l-7 35 -22
-30 c-40 -53 -47 -59 -51 -47 -2 6 9 27 23 47 15 19 23 35 17 35 -6 0 -12 10
-14 22 -4 31 -27 35 -24 4 2 -14 -1 -23 -6 -20 -5 3 -8 0 -7 -7 1 -8 -1 -22
-6 -32 -4 -10 -3 -29 4 -43 6 -14 11 -39 11 -57 -1 -28 -2 -30 -14 -15 -11 15
-14 14 -26 -17 -7 -19 -19 -37 -27 -39 -10 -4 -11 -1 -4 12 18 35 31 127 22
158 -11 38 -81 133 -98 133 -7 1 -13 8 -13 16 0 23 33 3 67 -42 l28 -36 6 29
c5 19 7 22 8 8 0 -11 7 -26 14 -33 10 -10 9 -11 -5 -6 -10 4 -18 5 -18 2 0
-12 23 -57 29 -57 3 0 7 32 9 72 2 40 8 80 13 90 8 16 5 18 -25 18 -45 0 -52
12 -36 64 15 48 90 125 150 153 48 22 46 38 -5 38 -33 0 -39 -3 -42 -24 -5
-37 -13 -39 -13 -4 0 28 -3 31 -41 36 -37 5 -117 -3 -159 -16 -103 -31 -136
-43 -140 -49 -6 -8 -90 -37 -90 -32 0 11 153 75 215 90 86 21 279 25 312 6 20
-11 30 -9 83 18 33 17 60 33 60 36 0 11 -23 49 -46 77 -13 16 -24 38 -24 50 1
19 3 18 18 -9 18 -31 66 -98 91 -124 12 -12 13 -11 7 8 -5 16 -3 24 8 28 22 8
20 27 -4 41 -16 11 -18 10 -14 -2 5 -11 2 -13 -10 -9 -9 3 -13 11 -9 17 4 6 0
8 -10 4 -21 -8 -62 68 -78 145 -8 40 -21 63 -52 95 -22 23 -44 40 -50 36 -5
-3 7 -18 26 -34 23 -19 43 -49 56 -85 24 -64 28 -105 5 -54 -9 19 -20 42 -25
50 -5 8 -15 27 -22 43 -6 15 -15 27 -20 27 -4 0 -22 13 -40 30 -39 36 -46 32
-19 -12 24 -39 55 -141 50 -166 -2 -9 -12 15 -22 53 -11 39 -25 75 -32 80 -6
6 -17 26 -23 46 -6 20 -27 53 -46 75 -19 21 -32 40 -30 43 5 5 39 -31 63 -67
13 -21 17 -21 30 -8 13 13 13 16 0 30 -9 8 -17 13 -20 11 -2 -2 -2 14 0 35 3
31 0 41 -17 52 -12 7 -21 17 -21 22 0 5 -11 24 -25 42 -35 46 -33 58 10 51
l35 -6 -5 37 c-2 20 -7 62 -10 92 -3 30 -9 65 -12 78 -3 12 -1 22 5 22 5 0 12
-23 15 -51 4 -29 9 -54 12 -57 2 -3 26 -11 52 -17 42 -11 48 -11 51 4 2 14 22
16 143 18 77 0 143 4 146 7 3 3 -14 23 -38 45 -24 22 -39 41 -34 41 6 0 35
-26 65 -57 30 -32 48 -52 41 -45 -25 21 -27 14 -20 -60 4 -40 8 -83 8 -96 1
-13 5 -20 11 -17 6 4 10 -6 10 -23 0 -21 7 -32 25 -40 28 -13 31 -10 51 52
l14 41 -4 -52 c-4 -52 6 -78 18 -47 21 56 0 108 -75 185 -47 48 -33 47 16 -1
24 -24 48 -41 51 -37 9 8 -18 107 -41 157 -46 97 -72 135 -93 136 -23 1 -56
25 -80 57 -8 10 -36 46 -64 80 -49 61 -50 63 -44 114 5 39 2 55 -9 67 -8 8
-15 19 -15 24 0 5 -7 16 -17 23 -15 13 -16 11 -10 -11 3 -14 9 -56 12 -95 l5
-70 -25 104 c-13 58 -30 109 -36 115 -8 8 -10 6 -5 -9 32 -110 52 -302 34
-320 -4 -4 -16 -4 -27 0 -16 5 -21 15 -21 40 0 25 -8 40 -31 59 -17 14 -39 26
-49 26 -18 0 -65 52 -89 98 -10 19 -9 30 5 60 9 20 28 50 40 65 13 16 24 34
24 40 0 6 -7 0 -16 -13 -10 -14 -22 -29 -28 -35 -6 -5 -19 -26 -29 -45 -9 -19
-25 -47 -35 -61 -69 -102 -117 -170 -147 -209 -20 -25 -45 -61 -56 -80 -15
-27 -18 -29 -13 -10 3 14 11 32 18 40 22 30 36 60 35 77 0 11 -3 13 -6 6 -3
-9 -10 -10 -23 -3 -13 7 -21 7 -25 0 -11 -17 -36 -11 -33 8 1 9 -1 22 -4 28
-4 6 4 22 18 37 13 14 24 38 24 54 0 20 3 24 9 14 5 -7 14 -10 20 -7 6 4 11 2
11 -3 0 -6 5 -11 11 -11 8 0 7 5 -1 15 -7 9 -11 17 -9 19 2 2 23 15 46 30 39
24 42 29 40 64 -2 33 -5 38 -21 34 -20 -5 -135 -118 -163 -160 -9 -13 -25 -28
-36 -34 -20 -10 -20 -10 -1 14 59 74 139 157 217 224 48 42 86 79 83 82 -3 2
-28 -16 -57 -42 -28 -25 -54 -46 -58 -46 -3 0 -29 18 -58 40 -29 21 -68 47
-87 57 -19 10 -57 45 -83 77 -46 57 -58 65 -138 85 l-30 8 30 13 c17 7 36 12
43 11 10 -2 9 6 -3 35 -8 20 -15 49 -15 64 0 15 -8 34 -18 43 -17 15 -24 15
-100 -9 -92 -28 -253 -105 -338 -162 -31 -20 -71 -44 -88 -54 -17 -9 -74 -54
-126 -100 -92 -82 -99 -86 -206 -121 -116 -38 -214 -95 -332 -195 -45 -38 -55
-42 -65 -30 -7 8 -42 36 -79 61 -47 33 -72 59 -87 90 -12 24 -21 49 -21 55 0
15 -26 16 -35 2 -3 -5 1 -10 9 -10 9 0 16 -4 16 -9 0 -5 3 -18 7 -28 6 -16 4
-16 -17 2 -22 19 -23 19 -34 2 -6 -11 -32 -46 -59 -79 -26 -33 -54 -73 -62
-89 -22 -41 -27 -36 -9 9 18 42 52 91 98 140 33 35 35 45 39 172 1 51 7 83 19
99 18 25 125 123 172 156 16 11 35 26 43 34 22 21 132 91 143 91 6 0 53 23
106 50 115 60 139 63 129 20 -4 -16 -4 -30 -2 -30 3 0 43 16 89 36 86 37 186
58 218 46 11 -4 16 -12 12 -17 -13 -19 -119 -105 -129 -105 -5 0 -18 -9 -28
-20 -18 -20 -17 -20 9 -20 26 0 36 4 86 30 14 7 54 14 90 15 36 2 73 5 83 9
45 16 55 18 99 23 25 2 56 -1 68 -7 17 -9 30 -7 68 12 25 13 51 33 58 45 8 17
13 20 22 11 9 -9 12 -9 12 -1 0 7 21 15 48 18 90 12 101 16 95 31 -3 8 -17 17
-31 21 -22 5 -23 7 -8 13 15 5 14 7 -8 20 -14 7 -26 17 -26 22 0 13 16 9 30
-7 17 -20 47 -19 59 3 8 14 11 14 12 2 1 -8 1 -23 0 -32 -3 -22 8 -23 37 -2
17 12 26 13 37 4 10 -8 15 -8 21 1 11 19 24 -22 13 -43 -5 -9 -9 -27 -9 -40 0
-13 -4 -18 -8 -12 -4 6 -18 8 -30 5 l-24 -6 22 -28 c18 -22 25 -25 41 -17 14
8 19 21 19 54 0 37 4 45 23 50 40 10 112 6 167 -10 41 -12 55 -13 60 -3 6 8
12 6 21 -10 20 -31 30 -26 18 9 -12 32 -19 36 -36 19 -14 -14 -64 -3 -60 14 1
7 -11 13 -28 15 -175 15 -423 104 -399 143 3 5 37 9 75 9 76 0 111 12 103 34
-4 11 1 13 18 10 21 -5 21 -4 5 6 -10 7 -21 9 -24 6 -3 -3 -15 0 -27 6 -11 7
-41 13 -66 15 -62 3 -139 18 -173 32 -20 8 -34 8 -48 1 -13 -7 -25 -7 -37 -1
-13 7 -31 6 -54 -1 -21 -6 -48 -7 -64 -3 -38 11 -43 12 -79 14 l-30 2 30 14
c36 16 14 18 -55 3z m440 -227 c0 -5 -7 -12 -16 -15 -22 -9 -24 -8 -24 9 0 8
9 15 20 15 11 0 20 -4 20 -9z m64 -27 c3 -8 2 -12 -4 -9 -6 3 -10 10 -10 16 0
14 7 11 14 -7z m-54 -74 c0 -5 -2 -10 -4 -10 -3 0 -8 5 -11 10 -3 6 -1 10 4
10 6 0 11 -4 11 -10z m-1117 -58 c20 -22 13 -32 -24 -32 -15 0 -31 -5 -34 -10
-4 -6 -11 -8 -16 -5 -5 4 -17 1 -26 -4 -10 -6 -13 -11 -7 -11 8 0 8 -9 0 -34
-9 -29 -13 -33 -28 -25 -30 16 -23 70 13 107 37 38 95 44 122 14z m1644 -144
c-3 -8 -6 -5 -6 6 -1 11 2 17 5 13 3 -3 4 -12 1 -19z m-484 -28 c3 -11 1 -18
-4 -14 -5 3 -9 12 -9 20 0 20 7 17 13 -6z m-1533 -129 c0 -12 -20 -25 -27 -18
-7 7 6 27 18 27 5 0 9 -4 9 -9z m1621 -48 c13 -17 13 -17 -6 -3 -11 8 -22 16
-24 17 -2 2 0 3 6 3 6 0 17 -8 24 -17z m89 -120 c0 -7 4 -13 9 -13 16 0 83
-150 76 -168 -8 -19 -5 -23 -64 108 -16 36 -45 90 -65 120 l-36 55 40 -45 c21
-25 40 -51 40 -57z m-820 -2 c0 -5 -15 -20 -32 -32 l-33 -22 29 31 c32 34 36
37 36 23z m961 -81 c31 -26 15 -26 -18 0 -14 11 -21 20 -15 20 5 0 20 -9 33
-20z m629 -30 c0 -5 -4 -10 -10 -10 -5 0 -10 5 -10 10 0 6 5 10 10 10 6 0 10
-4 10 -10z m-1861 -24 c-2 -2 -15 -9 -29 -15 -24 -11 -24 -11 -6 3 16 13 49
24 35 12z m-478 -111 c6 -11 -4 -5 -20 13 -17 18 -31 38 -31 45 0 13 34 -25
51 -58z m1910 -22 c13 -16 12 -17 -3 -4 -10 7 -18 15 -18 17 0 8 8 3 21 -13z
m70 -77 l34 -15 -30 4 c-16 2 -40 7 -52 11 -22 6 -23 4 -19 -37 2 -24 2 -36
-1 -27 -2 9 -10 22 -18 28 -8 6 -11 18 -8 27 4 11 0 14 -18 13 -38 -3 -49 -1
-49 11 0 16 117 5 161 -15z m-181 -51 c7 -9 8 -15 2 -15 -5 0 -12 7 -16 15 -3
8 -4 15 -2 15 2 0 9 -7 16 -15z m-20 -15 c0 -5 -4 -10 -10 -10 -5 0 -10 5 -10
10 0 6 5 10 10 10 6 0 10 -4 10 -10z m121 -46 c22 -99 1 -181 -52 -209 -118
-61 -209 -105 -218 -105 -14 0 2 43 19 48 7 3 10 0 6 -7 -11 -17 -5 -15 109
40 110 53 125 68 125 127 0 25 -1 25 -15 6 -14 -18 -14 -18 -15 0 0 13 -5 17
-20 13 -17 -4 -18 -2 -10 13 15 27 31 35 41 19 15 -24 10 44 -6 71 -21 36 -18
45 8 28 12 -9 25 -28 28 -44z m689 -1 c-4 -42 -5 -44 -8 -15 -3 30 2 62 10 62
2 0 1 -21 -2 -47z m-2886 -27 c-3 -15 -8 -25 -11 -23 -2 3 -1 17 3 31 3 15 8
25 11 23 2 -3 1 -17 -3 -31z m2066 5 c-12 -24 -30 -36 -30 -21 0 6 -4 8 -10 5
-5 -3 -7 0 -4 9 3 8 15 17 27 19 12 2 23 5 25 6 1 0 -2 -8 -8 -18z m450 -85
c60 -45 81 -66 65 -66 -6 0 -62 43 -117 92 -17 14 -46 34 -64 44 -19 10 -34
22 -34 26 0 10 61 -29 150 -96z m-272 4 c0 -9 -3 -7 -8 5 -5 11 -8 29 -8 40 0
16 2 15 8 -5 4 -14 8 -32 8 -40z m-690 30 c-7 -11 -17 -20 -22 -20 -5 0 -1 9
9 20 10 11 20 20 22 20 2 0 -2 -9 -9 -20z m-48 0 c0 -5 -4 -10 -10 -10 -5 0
-10 5 -10 10 0 6 5 10 10 10 6 0 10 -4 10 -10z m810 6 c0 -2 -8 -10 -17 -17
-16 -13 -17 -12 -4 4 13 16 21 21 21 13z m-662 -26 c-7 -10 -14 -17 -17 -15
-4 4 18 35 25 35 2 0 -1 -9 -8 -20z m-128 -14 c0 -2 -8 -10 -17 -17 -16 -13
-17 -12 -4 4 13 16 21 21 21 13z m-700 -16 c0 -13 -28 -25 -38 -16 -3 4 0 11
8 16 20 13 30 12 30 0z m504 -2 c-5 -8 0 -9 14 -6 12 4 22 5 22 3 0 -2 3 -10
6 -19 4 -10 1 -16 -9 -16 -8 0 -20 -13 -26 -30 -8 -24 -7 -30 5 -30 8 0 20
-11 26 -25 6 -14 15 -25 20 -25 11 0 10 17 -2 25 -5 3 -10 20 -10 36 0 47 19
24 26 -32 4 -31 13 -54 25 -63 18 -12 17 -15 -12 -61 -17 -26 -36 -54 -44 -61
-13 -13 -47 -68 -138 -221 -20 -33 -37 -70 -37 -81 0 -47 -99 -1 -136 63 -10
16 -14 18 -25 8 -17 -17 -29 -16 -29 1 0 8 -7 17 -16 20 -12 5 -13 10 -5 19 8
10 7 17 -1 25 -16 16 -26 15 -44 -3 -27 -26 -73 -16 -115 26 -10 10 -19 25
-19 32 -1 6 -7 -1 -15 -18 -13 -26 -14 -26 -9 -5 13 57 56 131 83 142 22 9 23
11 9 17 -16 5 -13 14 23 74 35 59 43 66 56 55 15 -12 15 -11 2 9 -11 19 -11
25 0 35 10 11 12 10 9 -6 -1 -10 3 -21 10 -23 9 -4 10 1 2 22 -8 21 -6 30 9
46 11 12 21 16 25 10 4 -5 -2 -15 -11 -20 -16 -10 -15 -13 12 -36 17 -14 26
-25 20 -25 -11 0 16 -20 28 -20 4 0 7 7 7 16 0 11 5 14 16 10 11 -4 18 1 21
14 3 11 12 20 19 20 8 0 14 7 14 15 0 9 7 18 16 22 8 3 13 12 10 19 -3 8 -1
14 4 14 6 0 10 -6 10 -12 1 -8 5 -7 14 4 8 11 20 15 35 11 14 -4 26 -1 32 8 8
12 11 12 19 -1 9 -13 13 -12 27 8 16 22 40 32 27 10z m936 -4 c-8 -8 -22 -20
-32 -25 -17 -9 -18 -8 -6 10 7 11 19 22 28 25 8 2 17 4 19 5 2 0 -2 -6 -9 -15z
m-1303 0 c-3 -3 -12 -4 -19 -1 -8 3 -5 6 6 6 11 1 17 -2 13 -5z m171 -18 c9
-20 8 -25 -6 -30 -9 -3 -22 -8 -28 -11 -16 -8 -35 40 -21 54 18 18 43 13 55
-13z m-268 4 c0 -5 -4 -10 -10 -10 -5 0 -10 5 -10 10 0 6 5 10 10 10 6 0 10
-4 10 -10z m85 -49 c-12 -48 -26 -55 -46 -21 -25 40 -31 38 -13 -5 8 -19 11
-35 7 -35 -11 0 -32 71 -26 87 6 16 23 17 23 2 0 -6 7 -3 16 6 23 23 48 1 39
-34z m955 29 c-6 -11 -13 -20 -16 -20 -2 0 0 9 6 20 6 11 13 20 16 20 2 0 0
-9 -6 -20z m137 -23 c-5 -15 -29 -16 -34 -2 -2 6 6 11 18 12 12 1 19 -3 16
-10z m-112 -7 c3 -5 1 -10 -4 -10 -6 0 -11 5 -11 10 0 6 2 10 4 10 3 0 8 -4
11 -10z m-513 -32 c-7 -7 -12 -8 -12 -2 0 14 12 26 19 19 2 -3 -1 -11 -7 -17z
m-617 2 c4 -6 11 -8 16 -4 11 6 2 -39 -12 -68 -5 -9 -9 -42 -9 -72 0 -31 -4
-56 -9 -56 -6 0 -7 29 -4 72 5 53 3 69 -5 64 -7 -4 -12 -1 -12 9 0 12 6 15 21
10 20 -7 20 -6 4 24 -14 28 -5 46 10 21z m1103 -95 c-2 -1 -18 -6 -36 -10 -31
-6 -33 -6 -21 13 7 11 18 18 24 15 13 -4 23 22 27 67 1 14 3 1 5 -29 2 -29 3
-54 1 -56z m-1031 73 c-3 -8 -6 -5 -6 6 -1 11 2 17 5 13 3 -3 4 -12 1 -19z
m986 7 c-3 -9 -8 -14 -10 -11 -3 3 -2 9 2 15 9 16 15 13 8 -4z m-1011 -27 c-8
-8 -9 -4 -5 13 4 13 8 18 11 10 2 -7 -1 -18 -6 -23z m666 0 c-13 -18 -26 -35
-29 -38 -3 -3 -11 -14 -17 -25 -6 -11 -12 -15 -12 -9 0 11 67 104 76 104 2 0
-6 -15 -18 -32z m-1778 -17 c0 -5 -7 -11 -15 -15 -15 -5 -20 5 -8 17 9 10 23
9 23 -2z m2081 -38 c-12 -20 -14 -14 -5 12 4 9 9 14 11 11 3 -2 0 -13 -6 -23z
m-969 -11 c2 -16 -4 -41 -14 -57 l-18 -30 0 28 c0 15 4 27 8 27 5 0 7 14 4 30
-2 17 0 30 6 30 5 0 12 -13 14 -28z m1378 7 c0 -11 -27 -29 -33 -22 -14 14 -6
32 13 30 11 -1 20 -4 20 -8z m-2583 -21 c-3 -8 -6 -5 -6 6 -1 11 2 17 5 13 3
-3 4 -12 1 -19z m1129 0 c-3 -13 -6 -38 -6 -57 0 -19 -3 -31 -7 -27 -4 4 -6
23 -5 42 2 23 -1 33 -8 29 -6 -3 -8 -11 -5 -16 4 -5 -1 -9 -10 -9 -12 0 -15
-5 -11 -16 5 -13 4 -14 -7 -6 -8 7 -16 11 -18 9 -2 -1 6 8 18 19 13 12 23 26
23 32 0 10 15 20 34 21 4 1 6 -9 2 -21z m1347 7 c18 -13 16 -14 -19 -24 -21
-6 -44 -7 -52 -2 -12 7 -10 12 14 24 35 20 35 20 57 2z m-1594 -74 c-7 -28
-15 -49 -17 -46 -2 2 1 27 8 55 7 28 14 49 17 46 3 -3 -1 -28 -8 -55z m1258
32 c-30 -67 -69 -135 -74 -129 -7 7 27 86 37 86 3 0 14 16 23 35 20 41 32 48
14 8z m-1850 -60 c-2 -16 -4 -5 -4 22 0 28 2 40 4 28 2 -13 2 -35 0 -50z
m1507 52 c-4 -8 -11 -15 -16 -15 -6 0 -5 6 2 15 7 8 14 15 16 15 2 0 1 -7 -2
-15z m-1727 -98 c-5 -32 -15 -77 -23 -100 -9 -28 -12 -32 -9 -12 3 17 11 72
17 124 8 58 15 85 18 70 3 -13 2 -50 -3 -82z m774 41 c-6 -17 -11 -43 -11 -57
0 -19 -3 -22 -9 -12 -5 8 -7 -4 -4 -33 5 -38 3 -46 -11 -46 -9 0 -16 7 -16 15
0 8 -5 14 -12 13 -17 -4 -32 44 -24 76 3 15 25 45 49 69 34 34 42 38 45 24 2
-10 -1 -32 -7 -49z m929 28 c0 -2 -8 -10 -17 -17 -16 -13 -17 -12 -4 4 13 16
21 21 21 13z m211 -39 c-13 -13 -26 -3 -16 12 3 6 11 8 17 5 6 -4 6 -10 -1
-17z m-81 0 c0 -20 -9 -25 -31 -20 -28 8 -24 33 6 33 14 0 25 -6 25 -13z m385
3 c-33 -4 -64 -3 -69 2 -6 4 21 7 60 7 l69 -2 -60 -7z m-490 -20 c-6 -20 9
-28 20 -10 9 15 25 12 25 -4 0 -20 -38 -27 -55 -10 -12 12 -12 18 -2 29 17 20
19 18 12 -5z m155 -14 c0 -5 -7 -3 -15 4 -8 7 -12 17 -9 22 7 10 24 -9 24 -26z
m-244 -23 c-33 -65 -64 -102 -35 -43 24 49 49 90 55 90 3 0 -7 -21 -20 -47z
m804 12 c47 -24 71 -45 51 -45 -5 0 -13 5 -16 11 -4 5 -30 21 -58 34 -29 13
-46 24 -39 24 7 1 35 -10 62 -24z m-1655 -99 c-4 -36 -11 -66 -15 -66 -7 0 -4
71 6 119 10 47 16 11 9 -53z m1170 -7 c-66 -116 -205 -303 -233 -314 -7 -3 1
13 20 36 53 65 153 208 200 286 52 88 63 81 13 -8z m-211 30 c5 -25 10 -30 25
-26 21 5 37 -18 21 -28 -6 -4 -10 -14 -10 -24 0 -23 -41 -51 -74 -51 -14 0
-28 -5 -31 -10 -9 -15 -25 -2 -19 15 3 7 0 23 -6 34 -9 18 -7 27 10 50 11 16
20 34 20 41 0 6 5 8 10 5 6 -3 10 1 10 9 0 9 8 16 19 16 13 0 20 -10 25 -31z
m-1834 -29 c0 -5 -4 -10 -10 -10 -5 0 -10 5 -10 10 0 6 5 10 10 10 6 0 10 -4
10 -10z m1257 -24 c4 -4 -22 -4 -57 -1 -68 5 -75 8 -66 23 6 10 110 -9 123
-22z m407 7 c-15 -47 -27 -73 -34 -73 -20 0 -79 -169 -69 -196 11 -27 11 -44
-1 -44 -5 0 -11 10 -11 23 -1 16 -3 17 -6 5 -2 -10 0 -25 5 -35 12 -20 -5 -63
-24 -63 -7 0 -17 -7 -21 -15 -11 -20 -116 -23 -140 -4 -15 12 -16 12 -10 -3 3
-9 1 -19 -6 -21 -7 -3 4 -11 23 -20 68 -28 78 -29 90 -7 6 11 15 20 19 20 16
0 20 -43 5 -58 -8 -8 -13 -20 -11 -26 3 -6 -7 -12 -20 -13 -18 -1 -22 2 -14
10 17 17 13 31 -4 17 -8 -7 -15 -18 -15 -25 0 -8 -5 -15 -12 -17 -8 -3 -8 -9
0 -24 11 -18 11 -18 12 4 0 13 4 20 10 17 6 -4 8 -11 4 -16 -3 -5 0 -16 6 -24
10 -12 10 -18 -1 -31 -12 -15 -15 -14 -30 5 -21 26 -29 27 -29 1 0 -13 -7 -20
-19 -20 -23 0 -36 -16 -22 -25 6 -3 8 -12 4 -20 -3 -10 2 -15 18 -16 24 -2 24
-2 2 -6 -24 -5 -31 -29 -11 -35 7 -3 6 -7 -5 -11 -11 -4 -17 -1 -17 9 0 8 -4
13 -9 10 -12 -8 -21 42 -14 78 5 21 3 27 -6 22 -7 -5 -10 -14 -7 -22 3 -8 -1
-14 -9 -14 -19 0 -12 56 17 139 10 30 18 64 18 75 1 29 35 102 64 137 31 37
137 129 148 129 13 0 9 -17 -7 -34 -8 -8 -15 -20 -15 -26 0 -7 -7 -10 -15 -6
-8 3 -14 2 -14 -2 3 -19 -2 -26 -10 -13 -6 9 -11 10 -15 2 -4 -6 -3 -11 3 -11
6 0 8 -7 5 -15 -4 -8 -1 -15 5 -15 6 0 11 7 11 15 0 8 5 15 10 15 6 0 10 -4
10 -9 0 -6 -4 -13 -10 -16 -12 -7 -13 -35 -2 -35 10 0 82 158 82 179 0 13 62
132 83 159 13 17 17 15 11 -5z m-830 -2 c3 -5 -3 -11 -15 -14 -16 -4 -18 -3
-8 9 13 16 16 17 23 5z m1441 -13 c44 -20 26 -48 -30 -48 -29 0 -50 31 -33 48
15 15 30 15 63 0z m-335 -8 c0 -5 -2 -10 -4 -10 -3 0 -8 5 -11 10 -3 6 -1 10
4 10 6 0 11 -4 11 -10z m634 -36 c4 -10 -4 -14 -31 -14 -35 0 -36 1 -19 19 19
21 41 19 50 -5z m-1437 -6 c-3 -8 -6 -5 -6 6 -1 11 2 17 5 13 3 -3 4 -12 1
-19z m1321 -3 c21 3 19 2 -6 -7 -35 -12 -49 -7 -36 13 6 10 9 10 12 1 2 -7 15
-10 30 -7z m962 -37 c22 -52 62 -206 57 -221 -2 -6 -11 23 -21 64 -10 40 -29
101 -42 133 -26 65 -27 66 -18 66 3 0 14 -19 24 -42z m-2257 -47 c10 -32 22
-50 40 -59 19 -9 27 -21 27 -40 0 -36 10 -49 41 -57 25 -6 50 -42 48 -68 0 -7
-7 2 -14 18 l-14 30 -1 -29 c0 -28 -1 -29 -19 -12 -24 22 -48 12 -29 -12 10
-12 10 -16 1 -19 -16 -6 -17 -33 -2 -33 6 0 9 -7 5 -15 -3 -8 -1 -15 4 -15 6
0 10 -7 10 -15 0 -8 5 -15 10 -15 13 0 13 -36 -1 -61 -5 -11 -12 -55 -15 -97
-4 -78 -29 -162 -46 -162 -6 0 -24 10 -41 22 -21 15 -32 18 -35 10 -2 -7 -8
-10 -13 -6 -5 3 -9 2 -8 -3 4 -21 -2 -34 -13 -27 -6 4 -8 3 -4 -4 3 -6 -3 -17
-14 -25 -11 -7 -17 -17 -14 -20 4 -3 -17 -38 -46 -77 l-52 -70 -59 0 c-38 0
-69 6 -84 16 -18 12 -29 13 -38 6 -11 -9 -31 -10 -80 -3 -5 0 -5 6 -2 11 3 6
-1 10 -9 10 -9 0 -16 2 -16 4 0 2 -3 11 -6 20 -4 11 -1 16 10 16 9 0 16 -8 16
-17 1 -17 1 -17 11 0 14 24 4 49 -18 45 -26 -4 -23 35 3 46 12 5 29 22 39 37
11 16 25 25 33 22 38 -15 35 61 -5 159 -30 75 -53 189 -53 274 0 56 2 62 23
68 24 6 51 -19 43 -41 -7 -18 24 -16 45 3 17 15 18 14 24 -12 9 -41 59 -207
88 -289 20 -59 29 -72 60 -88 l36 -19 60 28 c34 14 66 33 73 41 15 19 17 155
2 174 -13 16 -29 78 -44 163 -12 69 -12 92 0 56 8 -24 8 -24 9 7 1 17 7 38 14
45 12 11 12 16 1 26 -7 7 -18 12 -24 12 -11 0 -13 52 -4 88 9 32 31 11 47 -47z
m1427 54 c0 -3 -26 -18 -57 -35 -87 -46 -128 -71 -198 -123 -34 -26 -74 -51
-86 -56 -13 -5 -62 -37 -108 -72 -160 -122 -186 -140 -223 -160 -62 -32 -43
-14 45 44 45 30 93 66 107 79 14 14 38 33 53 43 22 14 25 20 15 27 -10 7 -9 9
4 5 9 -3 28 3 41 14 14 10 30 19 36 19 14 0 14 13 -1 28 -9 9 -8 12 4 12 9 0
19 -6 22 -12 3 -7 5 -4 5 7 -2 40 2 50 11 28 10 -26 24 -23 79 14 19 13 70 44
114 71 l81 47 -70 5 c-66 6 -67 6 -24 11 63 8 150 10 150 4z m100 -180 l-7
-130 -1 150 c0 83 3 141 7 130 4 -11 5 -78 1 -150z m-1200 83 c0 -19 -20 -5
-39 28 -29 49 -26 53 9 14 17 -18 30 -37 30 -42z m140 27 c0 -8 -4 -15 -10
-15 -5 0 -10 7 -10 15 0 8 5 15 10 15 6 0 10 -7 10 -15z m924 9 c9 -3 13 -10
10 -15 -3 -5 -1 -9 4 -9 6 0 15 -14 21 -31 13 -39 14 -52 2 -44 -5 3 -12 1
-16 -5 -3 -5 -1 -10 4 -10 6 0 11 -4 11 -10 0 -5 -11 -10 -24 -10 -14 0 -27
-4 -30 -9 -3 -5 -17 -11 -31 -13 -13 -3 -22 -2 -19 3 2 4 -8 7 -23 6 -15 -1
-28 3 -28 8 0 6 -7 21 -14 34 -10 18 -10 22 0 16 9 -6 11 -3 6 8 -8 22 15 12
31 -13 9 -15 9 -20 0 -20 -13 0 -5 -12 9 -12 4 0 15 -4 24 -8 11 -6 21 -3 33
11 22 26 17 55 -9 51 -11 -2 -17 0 -12 4 4 4 0 15 -9 25 -15 16 -14 19 13 33
34 18 28 17 47 10z m-852 -61 c-33 -18 -57 1 -28 22 14 11 22 11 36 3 17 -11
16 -13 -8 -25z m393 27 c-27 -12 -43 -12 -25 0 8 5 22 9 30 9 10 0 8 -3 -5 -9z
m372 -15 c0 -8 -4 -12 -9 -9 -5 3 -6 10 -3 15 9 13 12 11 12 -6z m-827 -5 c0
-5 -4 -10 -10 -10 -5 0 -10 5 -10 10 0 6 5 10 10 10 6 0 10 -4 10 -10z m397 3
c-10 -10 -87 -43 -87 -37 0 4 79 43 89 44 2 0 1 -3 -2 -7z m-1886 -40 l24 -26
-27 19 c-15 10 -28 22 -28 27 0 12 5 8 31 -20z m683 -55 c-3 -4 -10 -8 -15 -8
-6 0 -7 6 -2 13 4 6 7 23 6 37 -2 22 -1 22 7 -4 5 -16 7 -33 4 -38z m1096 42
c-8 -5 -19 -10 -25 -10 -5 0 -3 5 5 10 8 5 20 10 25 10 6 0 3 -5 -5 -10z
m1330 -10 c0 -5 -4 -10 -10 -10 -5 0 -10 5 -10 10 0 6 5 10 10 10 6 0 10 -4
10 -10z m-1400 -25 c-7 -8 -17 -15 -22 -15 -6 0 -5 7 2 15 7 8 17 15 22 15 6
0 5 -7 -2 -15z m-85 -47 c-27 -17 -70 -47 -95 -68 -50 -40 -70 -54 -70 -46 0
8 134 114 166 131 51 26 51 16 -1 -17z m-1445 -93 c0 -5 -7 -1 -15 10 -8 11
-18 25 -23 30 -25 30 -19 35 7 5 17 -19 31 -39 31 -45z m-336 39 c5 -14 4 -15
-9 -4 -17 14 -19 20 -6 20 5 0 12 -7 15 -16z m1531 -54 c3 -5 -1 -10 -10 -10
-9 0 -13 5 -10 10 3 6 8 10 10 10 2 0 7 -4 10 -10z m795 -20 c0 -6 -32 -10
-77 -9 -57 1 -70 3 -48 9 45 11 125 11 125 0z m-2141 -13 c6 -8 8 -16 5 -20
-10 -9 -34 4 -34 19 0 18 14 18 29 1z m166 -7 c3 -5 -1 -10 -9 -10 -9 0 -16 5
-16 10 0 6 4 10 9 10 6 0 13 -4 16 -10z m1175 -44 c0 -6 -7 -1 -15 10 -8 10
-15 23 -15 28 0 6 7 1 15 -10 8 -10 15 -23 15 -28z m-1347 -26 c9 0 17 -5 17
-12 0 -6 8 -20 18 -31 9 -11 12 -18 6 -16 -15 5 -84 69 -104 95 -8 10 -1 7 16
-8 17 -16 38 -28 47 -28z m1882 19 c17 -8 16 -9 -7 -6 -16 3 -36 -2 -45 -9
-28 -21 -38 -16 -12 6 27 22 35 23 64 9z m1452 -21 c-3 -7 -5 -2 -5 12 0 14 2
19 5 13 2 -7 2 -19 0 -25z m-3108 -35 c17 -29 27 -53 22 -53 -4 0 -14 11 -21
25 -7 14 -19 25 -25 25 -7 0 -12 14 -13 31 -1 37 -2 38 37 -28z m705 21 c3 -9
6 -31 6 -51 0 -27 -4 -34 -17 -31 -10 2 -19 13 -21 26 -2 12 -8 22 -13 22 -5
0 -2 11 7 25 19 29 29 31 38 9z m842 -59 c-14 -26 -28 -65 -31 -86 -4 -22 -11
-37 -15 -34 -5 3 -2 25 6 48 17 49 56 129 61 124 1 -2 -8 -25 -21 -52z m-1900
8 c-10 -10 -19 5 -10 18 6 11 8 11 12 0 2 -7 1 -15 -2 -18z m1484 -13 c0 -5
-9 -10 -20 -10 -11 0 -20 5 -20 10 0 6 9 10 20 10 11 0 20 -4 20 -10z m108 3
c-16 -2 -40 -2 -55 0 -16 2 -3 4 27 4 30 0 43 -2 28 -4z m-990 -36 c-2 -12 -7
-26 -13 -30 -5 -5 1 -5 14 -2 20 6 23 4 18 -9 -4 -10 -3 -15 2 -12 11 7 23
-22 15 -35 -3 -5 -10 -9 -15 -9 -6 0 -8 4 -5 9 3 5 -3 11 -14 14 -27 7 -44 55
-31 85 13 27 33 20 29 -11z m1752 17 c0 -2 -12 -4 -26 -4 -14 0 -23 4 -20 9 6
8 46 4 46 -5z m-70 -9 c0 -5 -16 -28 -35 -50 -19 -22 -35 -43 -35 -47 0 -4 -5
-19 -11 -35 l-10 -28 -19 25 -19 25 -21 -23 c-17 -18 -19 -26 -10 -37 8 -10 8
-15 -1 -21 -7 -4 -15 -2 -17 4 -2 7 -12 12 -23 12 -10 0 -19 5 -19 10 0 5 -5
9 -12 8 -6 -2 -13 5 -16 14 -2 13 6 18 35 23 58 10 63 13 63 34 0 11 16 32 35
47 19 14 35 32 35 39 0 8 14 12 40 11 22 0 40 -5 40 -11z m-295 -13 c-6 -4
-42 -37 -81 -73 l-71 -64 74 73 c40 39 76 72 80 72 4 0 3 -4 -2 -8z m420 -30
c-3 -3 -11 0 -18 7 -9 10 -8 11 6 5 10 -3 15 -9 12 -12z m635 -17 c0 -5 -5 -3
-10 5 -5 8 -10 20 -10 25 0 6 5 3 10 -5 5 -8 10 -19 10 -25z m-2644 17 c9 -6
16 -42 8 -42 -1 0 -9 11 -18 25 -16 25 -12 32 10 17z m1053 -60 c6 -12 9 -22
7 -22 -10 0 -36 59 -35 77 0 12 3 9 8 -8 5 -14 14 -35 20 -47z m-1003 -32 c2
-40 7 -76 9 -80 2 -4 7 -22 10 -40 3 -19 11 -40 17 -47 6 -8 9 -16 6 -18 -20
-20 -58 119 -58 214 0 76 10 58 16 -29z m279 60 c3 -5 1 -10 -4 -10 -6 0 -11
5 -11 10 0 6 2 10 4 10 3 0 8 -4 11 -10z m655 -20 c0 -22 -20 -26 -38 -8 -19
19 -14 28 13 28 18 0 25 -5 25 -20z m-675 0 c3 -5 1 -10 -4 -10 -6 0 -11 5
-11 10 0 6 2 10 4 10 3 0 8 -4 11 -10z m2370 -157 c6 -76 5 -86 -20 -140 -31
-65 -65 -117 -72 -109 -3 2 11 31 31 63 56 91 58 109 32 303 l-6 45 14 -40 c7
-23 17 -78 21 -122z m-1792 -23 c14 0 67 38 116 84 25 23 36 30 26 16 -18 -24
-111 -107 -139 -122 -11 -6 -18 4 -30 44 -8 29 -17 76 -20 103 -4 36 0 26 16
-37 12 -49 25 -88 31 -88z m-963 145 c11 -13 10 -14 -4 -9 -9 3 -16 10 -16 15
0 13 6 11 20 -6z m2590 -6 c0 -5 -6 -9 -14 -9 -8 0 -23 -3 -33 -7 -17 -6 -17
-6 0 15 18 20 47 20 47 1z m-2540 1 c0 -5 -7 -10 -15 -10 -8 0 -15 5 -15 10 0
6 7 10 15 10 8 0 15 -4 15 -10z m40 0 c0 -5 -2 -10 -4 -10 -3 0 -8 5 -11 10
-3 6 -1 10 4 10 6 0 11 -4 11 -10z m710 -15 c0 -8 -2 -15 -4 -15 -2 0 -6 7
-10 15 -3 8 -1 15 4 15 6 0 10 -7 10 -15z m96 -61 c-8 -38 -62 -98 -79 -87 -7
3 -9 3 -5 -2 8 -9 -81 -87 -140 -122 -42 -25 -49 -26 -146 -20 -106 6 -236 33
-248 51 -15 21 -8 26 15 12 12 -9 49 -18 82 -20 40 -4 50 -3 30 2 -34 10 -75
33 -75 44 0 3 14 1 30 -5 17 -6 30 -15 30 -19 0 -4 5 -8 11 -8 5 0 7 5 4 10
-4 6 29 10 90 10 97 0 97 0 129 34 18 18 50 61 71 95 21 33 39 61 40 61 1 0 3
-11 3 -25 0 -13 -4 -22 -9 -20 -10 7 -33 -34 -25 -43 3 -3 6 0 6 6 0 18 26 14
41 -5 13 -16 12 -17 -3 -5 -13 10 -18 10 -24 1 -4 -7 -2 -15 4 -17 8 -2 3 -11
-10 -22 -13 -10 -20 -22 -16 -26 4 -4 35 17 69 46 44 39 63 50 69 40 11 -18
30 -3 29 23 -1 20 -2 20 -8 -3 -5 -19 -8 -21 -13 -10 -3 9 0 24 8 35 8 10 14
13 14 7 0 -7 5 -12 11 -12 6 0 8 9 4 20 -3 11 -3 25 2 32 11 19 16 -16 9 -58z
m571 60 c-3 -3 -12 -4 -19 -1 -8 3 -5 6 6 6 11 1 17 -2 13 -5z m373 -4 c0 -5
-7 -10 -16 -10 -8 0 -12 5 -9 10 3 6 10 10 16 10 5 0 9 -4 9 -10z m-1576 -6
c9 -3 16 -10 16 -15 0 -14 -26 -10 -40 6 -13 16 -3 20 24 9z m501 -4 c3 -5 1
-10 -4 -10 -6 0 -11 5 -11 10 0 6 2 10 4 10 3 0 8 -4 11 -10z m694 -6 c2 -2
-4 -19 -14 -36 -16 -29 -60 -68 -168 -146 -18 -13 -31 -27 -30 -32 1 -4 -6 -6
-16 -3 -11 3 -31 -3 -46 -13 -31 -20 -104 -27 -123 -12 -9 8 -17 6 -30 -6 -19
-17 -47 -22 -38 -7 3 5 -5 16 -19 25 -23 15 -29 14 -26 -6 0 -4 -6 -5 -14 -2
-8 4 -12 10 -9 15 3 5 -1 6 -9 3 -8 -3 -24 11 -41 36 l-27 41 28 34 c15 18 31
34 34 34 3 1 11 -17 18 -39 6 -22 17 -40 23 -40 16 0 144 106 169 139 l20 28
157 -5 c86 -2 159 -6 161 -8z m22 -20 c-11 -15 -21 -23 -21 -18 0 14 31 56 37
50 3 -3 -4 -17 -16 -32z m-684 -6 c-3 -8 -6 -5 -6 6 -1 11 2 17 5 13 3 -3 4
-12 1 -19z m973 -23 c41 -26 55 -65 24 -65 -10 0 -14 6 -11 15 9 22 -13 29
-28 9 -12 -18 -14 -17 -21 11 -4 17 -11 36 -17 43 -16 20 10 14 53 -13z m-76
-35 c-5 -31 -3 -40 7 -40 8 0 22 -12 31 -27 13 -21 18 -23 18 -10 0 9 3 17 8
18 15 1 37 7 55 14 14 6 17 1 17 -29 0 -20 -7 -48 -17 -62 -16 -25 -16 -25 10
-18 23 5 27 3 27 -15 0 -33 42 -68 103 -86 42 -12 54 -20 50 -31 -5 -13 -8
-13 -24 2 -10 9 -23 13 -28 9 -15 -9 -14 -48 1 -63 10 -10 2 -11 -35 -6 -34 5
-47 3 -47 -6 0 -8 -9 -10 -27 -5 -37 9 -53 23 -53 46 0 11 -4 19 -9 19 -5 0
-19 16 -31 37 -17 29 -19 38 -8 45 9 7 7 8 -7 4 -15 -4 -27 5 -47 31 -30 39
-36 81 -15 102 10 10 8 15 -6 25 -16 13 -15 46 3 46 4 0 10 9 13 20 9 36 17
21 11 -20z m-1404 25 c0 -8 -52 -26 -58 -20 -3 2 6 9 19 14 28 11 39 13 39 6z
m0 -45 c0 -5 -2 -10 -4 -10 -3 0 -8 5 -11 10 -3 6 -1 10 4 10 6 0 11 -4 11
-10z m-193 -72 c-3 -8 -6 -5 -6 6 -1 11 2 17 5 13 3 -3 4 -12 1 -19z m768 -29
c3 -10 15 -21 26 -24 22 -7 26 -25 5 -25 -8 0 -26 14 -40 31 -21 25 -29 29
-40 19 -12 -9 -14 -7 -11 7 1 10 8 17 15 15 8 -2 10 3 6 15 -6 15 -5 15 13 -1
11 -10 23 -27 26 -37z m-661 16 c14 -14 31 -22 39 -19 8 3 17 -2 20 -10 14
-37 -47 -9 -82 37 -20 25 -6 21 23 -8z m-226 -10 c-6 -14 -13 -23 -15 -21 -5
5 15 46 22 46 3 0 -1 -11 -7 -25z m117 -115 c-49 -49 -94 -89 -100 -89 -5 0 2
10 17 24 24 20 25 24 10 28 -11 3 -8 5 9 6 17 1 42 19 80 61 29 33 59 60 64
60 6 0 -30 -40 -80 -90z m712 64 l28 -26 -35 23 c-46 29 -45 29 -32 29 6 0 24
-12 39 -26z m-856 -21 c-10 -17 -10 -16 -11 3 0 23 13 41 18 25 2 -6 -1 -18
-7 -28z m1269 18 c0 -26 -181 -53 -216 -33 -15 9 -5 12 51 12 39 1 86 7 105
14 43 17 60 19 60 7z m-880 -33 c0 -19 -16 -5 -17 14 -2 18 0 20 7 8 5 -8 10
-18 10 -22z m623 7 c15 -10 26 -19 25 -21 -8 -7 -122 22 -125 32 -6 18 69 10
100 -11z m-923 5 c0 -5 -4 -10 -10 -10 -5 0 -10 5 -10 10 0 6 5 10 10 10 6 0
10 -4 10 -10z m1874 -29 c-2 -3 -12 3 -22 13 -16 17 -16 18 5 5 12 -7 20 -15
17 -18z m-789 -28 c9 -12 -2 -28 -57 -83 -59 -58 -68 -73 -68 -103 0 -44 13
-75 60 -147 49 -75 55 -84 44 -77 -5 3 -29 34 -53 70 -38 56 -71 81 -71 55 0
-5 -4 -7 -9 -3 -5 3 -13 -4 -16 -16 l-7 -21 -14 21 c-11 15 -12 26 -4 40 20
38 6 192 -24 271 -5 13 9 15 101 12 81 -3 110 -8 118 -19z m1095 7 c0 -5 -5
-10 -11 -10 -5 0 -7 5 -4 10 3 6 8 10 11 10 2 0 4 -4 4 -10z m-96 -15 c-18
-14 -17 -14 13 -15 42 0 35 -25 -8 -26 -20 -1 -41 -12 -58 -30 -33 -36 -104
-94 -109 -89 -2 1 8 14 22 28 30 30 34 49 9 40 -14 -5 -13 -3 3 13 10 11 21
16 22 11 4 -9 32 11 32 24 0 5 -7 6 -15 3 -10 -4 -13 -2 -10 8 4 9 20 15 37
16 17 0 35 8 40 16 5 9 16 16 25 16 14 0 14 -2 -3 -15z m-1304 -5 c0 -5 -4
-10 -9 -10 -5 0 -24 -2 -42 -5 l-34 -5 30 14 c36 18 55 20 55 6z m1371 -98
c-12 -34 -21 -70 -21 -80 0 -10 -7 -27 -15 -38 -14 -19 -14 -18 -15 4 0 12 4
30 9 40 13 26 31 86 31 105 0 8 5 28 12 44 22 53 21 -9 -1 -75z m-1031 72 c0
-7 -16 -20 -65 -56 -25 -18 -24 -15 10 20 36 39 55 51 55 36z m-1014 -66 c-14
-24 -26 -37 -26 -30 0 15 17 50 34 68 21 23 18 5 -8 -38z m1974 22 c0 -5 -7
-10 -16 -10 -8 0 -12 5 -9 10 3 6 10 10 16 10 5 0 9 -4 9 -10z m-1874 -55
c-11 -8 -22 -12 -25 -9 -6 6 19 24 34 24 6 -1 1 -7 -9 -15z m184 0 c7 -8 8
-15 2 -15 -5 0 -15 7 -22 15 -7 8 -8 15 -2 15 5 0 15 -7 22 -15z m604 -30 c-4
-8 -8 -15 -10 -15 -2 0 -4 7 -4 15 0 8 4 15 10 15 5 0 7 -7 4 -15z m-952 -27
c-8 -8 -9 -4 -5 13 4 13 8 18 11 10 2 -7 -1 -18 -6 -23z m1523 22 c4 -6 -6
-10 -22 -10 -22 0 -25 2 -13 10 19 12 27 12 35 0z m213 -10 c7 -11 11 -20 9
-20 -2 0 -12 9 -22 20 -10 11 -14 20 -9 20 5 0 15 -9 22 -20z m-1468 6 c0 -2
-7 -7 -16 -10 -8 -3 -12 -2 -9 4 6 10 25 14 25 6z m130 -6 c13 0 48 -61 54
-95 6 -30 6 -29 -11 5 -27 54 -47 80 -59 80 -19 0 -144 -58 -160 -75 -9 -8
-19 -15 -23 -15 -5 0 -25 -15 -44 -34 -21 -20 -39 -30 -43 -24 -3 5 -2 14 4
20 6 6 8 16 6 22 -2 6 6 17 18 25 23 14 23 14 4 -8 -11 -11 -16 -21 -12 -21
10 0 70 31 76 40 12 16 156 89 168 85 8 -3 17 -5 22 -5z m118 -8 c12 -7 22
-19 22 -27 0 -18 -17 -20 -22 -3 -5 15 -27 2 -36 -22 -6 -14 -12 -10 -33 25
l-27 43 37 -2 c20 -1 46 -7 59 -14z m321 -9 c0 -10 -4 -27 -9 -38 -6 -15 -7
-11 -7 18 1 20 5 37 9 37 4 0 8 -8 7 -17z m902 -29 c22 -32 34 -43 42 -35 7 7
5 17 -9 33 l-19 23 23 -19 c22 -19 23 -19 55 12 18 18 36 32 39 32 17 0 -18
-57 -46 -76 -28 -18 -31 -25 -28 -63 1 -23 -3 -50 -11 -61 -17 -25 -183 -151
-220 -168 -15 -6 -40 -12 -55 -12 -30 -1 -82 -41 -82 -65 0 -17 55 -22 65 -5
4 6 11 8 16 5 5 -4 9 1 9 9 0 8 -5 18 -12 22 -7 4 7 13 32 20 47 14 60 8 60
-29 0 -23 -28 -33 -153 -51 -94 -14 -208 -20 -165 -9 14 3 16 13 12 56 -5 51
-5 51 10 25 9 -15 15 -37 13 -50 -1 -17 4 -24 21 -26 12 -2 22 1 22 7 0 6 -4
11 -10 11 -5 0 -10 6 -10 13 1 13 70 61 70 48 0 -5 -7 -11 -15 -15 -16 -6 -21
-26 -6 -26 5 0 16 7 25 15 8 8 17 15 21 15 4 0 13 7 22 16 17 16 15 19 -54 93
-13 13 -23 27 -23 32 0 4 -3 16 -6 26 -5 17 -5 17 6 -1 10 -15 14 -16 22 -5 8
11 8 10 4 -4 -4 -12 6 -31 31 -58 20 -21 40 -39 45 -39 5 0 7 3 5 8 -3 4 2 14
11 22 14 13 15 12 9 -4 -7 -17 -5 -17 13 -5 12 8 21 18 20 23 -1 5 3 12 9 16
8 4 3 16 -14 34 -14 15 -25 22 -25 17 0 -21 -20 -10 -35 19 -11 22 -12 30 -3
30 7 0 22 12 34 27 19 24 24 26 38 14 13 -11 14 -17 5 -28 -10 -11 -9 -12 5
-7 9 3 16 10 16 15 0 5 9 9 20 9 15 0 20 -7 21 -27 1 -17 3 -21 6 -10 2 9 8
17 13 17 5 0 7 6 4 14 -3 7 2 16 10 19 9 4 17 -1 20 -11 6 -18 56 -46 56 -32
0 5 -5 10 -11 12 -16 5 -1 32 24 43 32 15 32 39 -1 76 l-29 33 7 -47 c7 -51 1
-62 -30 -52 -24 8 -26 31 -4 43 16 9 16 23 -1 65 -5 13 -2 17 13 17 14 0 32
-16 53 -46z m-1033 20 c18 -8 32 -17 32 -19 0 -7 -60 17 -66 26 -7 12 -2 11
34 -7z m857 -29 c0 -14 -5 -21 -13 -18 -7 3 -19 0 -27 -7 -15 -12 -35 -6 -35
11 0 5 10 20 21 33 17 19 25 22 38 14 9 -5 16 -20 16 -33z m-1379 20 c17 -16
12 -18 -23 -9 -13 4 -23 10 -23 15 0 14 30 10 46 -6z m779 -22 c8 -20 13 -38
11 -40 -5 -6 -36 51 -36 67 0 20 10 10 25 -27z m-471 -39 c-6 -24 -5 -25 13
-13 12 7 29 9 39 5 18 -7 18 -8 -4 -26 -13 -10 -23 -23 -22 -27 0 -4 -7 -8
-17 -8 -9 0 -18 10 -20 25 -4 26 4 70 12 70 3 0 2 -12 -1 -26z m1450 11 c-8
-19 6 -19 34 1 23 16 26 15 16 -10 -3 -9 -14 -16 -24 -16 -11 0 -22 -5 -25
-11 -4 -6 -13 -8 -21 -5 -7 3 -16 1 -19 -4 -11 -18 -25 -10 -25 13 0 29 18 47
47 47 16 0 21 -4 17 -15z m116 -11 c0 -7 -7 -34 -16 -60 -8 -25 -14 -48 -11
-50 2 -2 20 3 40 11 46 19 53 19 37 0 -7 -8 -38 -22 -69 -31 -31 -9 -74 -22
-96 -29 -57 -20 -104 -25 -149 -17 -47 8 -59 29 -19 34 20 2 27 8 25 21 -2 13
5 9 28 -13 39 -39 48 -38 56 5 7 37 10 40 34 25 12 -7 12 -12 -4 -29 -22 -24
-17 -25 44 -7 30 9 46 19 48 32 2 10 8 29 14 41 6 12 8 37 5 56 -5 31 -3 34
14 30 10 -3 19 -11 19 -19z m-448 -10 c-2 -10 -13 -27 -25 -36 -19 -15 -23
-15 -30 -2 -6 11 -2 23 14 40 26 27 46 26 41 -2z m-68 1 c-4 -8 -12 -15 -19
-15 -7 0 -18 -7 -25 -15 -7 -8 -16 -12 -21 -9 -5 3 -9 2 -8 -3 4 -22 -3 -33
-22 -33 -14 0 -18 4 -12 13 4 6 8 19 8 27 0 9 10 15 26 15 14 0 33 8 43 18 21
21 37 22 30 2z m-1503 -32 c-10 -17 -10 -16 -11 3 0 23 13 41 18 25 2 -6 -1
-18 -7 -28z m69 17 c0 -5 -4 -10 -9 -10 -6 0 -13 5 -16 10 -3 6 1 10 9 10 9 0
16 -4 16 -10z m745 -47 c9 -20 14 -40 13 -45 -2 -5 -11 11 -20 37 -20 54 -15
61 7 8z m282 -131 c32 -41 59 -69 61 -63 2 6 10 11 18 11 11 0 9 -10 -9 -47
-13 -27 -22 -56 -19 -65 2 -13 -3 -18 -17 -18 -24 0 -25 6 -6 40 8 14 14 33
15 43 0 22 -36 71 -53 73 -7 1 -16 2 -22 3 -5 1 -4 5 4 10 11 7 8 16 -14 45
-15 20 -32 36 -37 36 -11 0 -3 -16 26 -50 16 -19 14 -18 -12 5 -19 17 -30 35
-27 43 3 8 -6 29 -20 48 -14 18 -25 36 -25 40 0 11 70 -68 137 -154z m-973
139 c9 -13 -4 -41 -19 -41 -8 0 -10 9 -7 25 4 25 16 32 26 16z m132 -20 c15
-30 8 -49 -19 -54 -21 -3 -21 -4 -3 -12 13 -6 21 -5 24 3 2 7 10 12 18 12 8 0
14 5 14 10 0 16 18 12 40 -10 24 -24 25 -30 5 -30 -8 0 -15 -4 -15 -9 0 -11
-38 -24 -62 -21 -22 2 -24 -28 -3 -36 8 -4 15 -11 15 -16 0 -7 -5 -6 -13 1 -8
6 -17 8 -20 4 -4 -3 -7 5 -7 19 0 14 -8 36 -19 49 -15 19 -16 27 -7 44 6 11
15 23 20 26 4 4 3 10 -3 13 -6 4 -11 14 -11 22 0 23 33 12 46 -15z m624 -83
c0 -17 12 -22 70 -31 21 -4 19 -5 -7 -6 -49 -2 -83 15 -83 41 -1 13 -7 34 -15
48 -8 14 -14 34 -15 45 0 12 11 -1 25 -30 13 -27 25 -58 25 -67z m-700 82 l20
-20 -20 0 c-22 0 -26 -10 -9 -27 9 -9 6 -10 -10 -6 -17 4 -21 11 -17 27 3 11
6 27 6 34 0 17 7 15 30 -8z m1184 9 c-3 -6 0 -16 7 -21 10 -7 8 -8 -8 -3 -12
3 -24 1 -28 -5 -3 -5 -16 -10 -27 -10 -18 0 -16 4 13 24 37 27 54 32 43 15z
m866 -8 c0 -12 -98 -24 -113 -14 -7 5 11 10 43 14 30 3 58 6 63 7 4 1 7 -2 7
-7z m360 -9 c0 -4 -15 -13 -32 -19 l-33 -12 24 19 c24 21 41 26 41 12z m-61
-41 c17 -11 6 -31 -18 -31 -9 0 -21 -4 -26 -8 -21 -19 -101 -33 -173 -32 -109
2 -108 2 -94 -12 7 -7 12 -25 12 -40 0 -15 5 -28 11 -28 15 0 -29 -74 -53 -89
-36 -22 -93 -16 -137 15 -22 16 -41 34 -41 40 0 6 18 22 40 37 22 14 40 22 40
17 0 -5 -8 -13 -17 -19 -15 -8 -16 -12 -5 -23 10 -10 17 -10 31 -1 13 8 22 8
29 1 8 -8 16 -6 28 7 12 12 14 19 6 24 -8 5 -5 12 8 24 11 9 20 21 20 27 0 15
-32 12 -54 -5 -11 -8 -24 -15 -29 -15 -16 0 5 21 31 32 27 11 26 11 -18 20
-56 12 -81 33 -30 25 19 -3 85 -11 146 -18 110 -12 111 -12 200 16 75 24 85
29 64 36 -20 6 -21 7 -5 8 11 0 26 -3 34 -8z m-1692 -38 c-3 -10 -5 -4 -5 12
0 17 2 24 5 18 2 -7 2 -21 0 -30z m1593 19 c-46 -22 -277 -23 -310 -1 -20 12
21 12 129 -2 70 -8 94 -7 131 4 63 21 95 20 50 -1z m-460 -17 c-34 -20 -60
-20 -34 0 10 8 28 14 39 14 18 0 17 -1 -5 -14z m77 9 c-3 -3 -12 -4 -19 -1 -8
3 -5 6 6 6 11 1 17 -2 13 -5z m-1634 -24 c-3 -11 -7 -20 -9 -20 -2 0 -4 9 -4
20 0 11 4 20 9 20 5 0 7 -9 4 -20z m910 14 c3 -3 3 -12 0 -20 -4 -11 -9 -12
-19 -3 -8 6 -14 15 -14 20 0 10 24 12 33 3z m504 -19 c45 0 74 -3 64 -7 -30
-11 -83 -12 -141 -3 -30 5 -58 8 -62 7 -5 -1 -8 2 -8 8 0 6 13 7 33 2 17 -4
69 -7 114 -7z m-1463 -11 c4 -10 1 -14 -6 -12 -15 5 -23 28 -10 28 5 0 13 -7
16 -16z m1306 2 c0 -2 -8 -10 -17 -17 -16 -13 -17 -12 -4 4 13 16 21 21 21 13z
m-737 -26 c37 -4 74 -14 82 -20 16 -13 18 -60 4 -100 -6 -18 -8 -9 -6 35 l2
59 -92 15 c-51 8 -93 19 -93 24 0 5 8 6 17 3 10 -4 48 -11 86 -16z m80 13 c-7
-2 -19 -2 -25 0 -7 3 -2 5 12 5 14 0 19 -2 13 -5z m-803 -33 c6 -11 18 -20 27
-20 13 0 14 -3 5 -12 -9 -9 -17 -6 -37 12 -26 24 -32 40 -15 40 5 0 14 -9 20
-20z m1393 -8 c-24 -21 -29 -31 -23 -47 5 -11 9 -29 9 -40 -1 -11 -6 -2 -14
20 -12 39 -12 41 18 68 17 15 34 27 37 27 3 0 -9 -13 -27 -28z m-257 -11 c1
-6 0 -7 -2 -2 -3 6 -11 8 -18 5 -8 -3 -16 2 -19 10 -5 12 -1 13 15 7 12 -4 23
-13 24 -20z m-227 -41 c0 -8 -9 -31 -20 -50 -19 -33 -19 -28 3 32 7 20 5 33
-7 55 l-17 28 21 -25 c11 -14 20 -32 20 -40z m-74 -85 c-9 -38 -13 -45 -10
-20 3 22 9 67 13 100 6 54 7 56 10 20 1 -22 -4 -67 -13 -100z m869 90 c-4 -8
-11 -15 -16 -15 -6 0 -5 6 2 15 7 8 14 15 16 15 2 0 1 -7 -2 -15z m-1640 -10
c3 -8 1 -15 -4 -15 -6 0 -10 7 -10 15 0 8 2 15 4 15 2 0 6 -7 10 -15z m-104
-41 c0 -2 -9 -4 -20 -4 -11 0 -20 4 -20 9 0 5 9 7 20 4 11 -3 20 -7 20 -9z
m1380 -24 c-8 -5 -24 -9 -35 -9 -16 1 -16 2 5 9 35 11 48 11 30 0z m-312 -41
c56 -1 69 -3 46 -8 -38 -10 -152 3 -168 19 -8 8 -4 9 17 1 16 -6 63 -11 105
-12z m181 17 c-2 -2 -26 -6 -54 -10 -34 -4 -43 -3 -30 3 19 9 93 15 84 7z
m-1083 -58 c-11 -15 -16 -18 -16 -7 0 16 21 42 28 34 2 -2 -3 -14 -12 -27z
m690 -34 c-4 -14 -9 -24 -12 -21 -3 2 -2 17 2 31 3 15 9 25 11 22 3 -3 2 -17
-1 -32z m152 8 c2 -7 -2 -10 -12 -6 -9 3 -16 11 -16 16 0 13 23 5 28 -10z
m-389 -17 c15 -5 20 -10 13 -17 -6 -6 -17 -6 -30 1 -38 20 -47 11 -17 -15 27
-22 27 -24 5 -13 -43 20 -51 29 -37 44 12 14 17 14 66 0z m151 -15 c-20 -13
-110 -13 -110 0 0 6 27 10 63 10 44 0 58 -3 47 -10z m-684 -132 c-28 -39 -20
-79 24 -128 45 -49 51 -62 18 -34 -45 36 -77 79 -78 102 0 28 27 82 41 82 5 0
3 -10 -5 -22z m574 -72 c0 -2 -8 -10 -17 -17 -16 -13 -17 -12 -4 4 13 16 21
21 21 13z"/>
<path d="M2140 2860 c0 -5 5 -10 10 -10 6 0 10 5 10 10 0 6 -4 10 -10 10 -5 0
-10 -4 -10 -10z"/>
<path d="M1945 2790 c-3 -5 -1 -10 4 -10 6 0 11 5 11 10 0 6 -2 10 -4 10 -3 0
-8 -4 -11 -10z"/>
<path d="M1867 2606 c3 -14 11 -31 19 -37 22 -18 18 24 -5 45 -17 16 -18 16
-14 -8z"/>
<path d="M2064 2375 c3 -21 16 -31 16 -12 0 9 -4 18 -9 21 -5 4 -8 -1 -7 -9z"/>
<path d="M1870 2869 c0 -5 5 -7 10 -4 6 3 10 8 10 11 0 2 -4 4 -10 4 -5 0 -10
-5 -10 -11z"/>
<path d="M1412 2610 c0 -14 2 -19 5 -12 2 6 2 18 0 25 -3 6 -5 1 -5 -13z"/>
<path d="M1370 2600 c0 -5 5 -10 10 -10 6 0 10 5 10 10 0 6 -4 10 -10 10 -5 0
-10 -4 -10 -10z"/>
<path d="M2106 2127 c3 -10 9 -15 12 -12 3 3 0 11 -7 18 -10 9 -11 8 -5 -6z"/>
<path d="M2060 2080 c0 -5 5 -10 10 -10 6 0 10 5 10 10 0 6 -4 10 -10 10 -5 0
-10 -4 -10 -10z"/>
<path d="M1760 2216 c0 -16 5 -26 15 -26 8 0 15 6 15 14 0 7 -7 19 -15 26 -13
11 -15 8 -15 -14z"/>
<path d="M1731 2181 c-15 -26 -14 -28 9 -34 16 -4 20 0 20 18 0 32 -16 40 -29
16z"/>
<path d="M1307 2094 c-3 -4 1 -13 9 -21 17 -18 29 -11 21 12 -7 16 -19 20 -30
9z"/>
<path d="M1365 2080 c-3 -5 -1 -10 4 -10 6 0 11 5 11 10 0 6 -2 10 -4 10 -3 0
-8 -4 -11 -10z"/>
<path d="M1408 1765 c-3 -14 -1 -28 3 -31 5 -3 9 1 9 10 0 8 3 21 6 30 3 9 2
16 -4 16 -5 0 -12 -11 -14 -25z"/>
<path d="M1275 1570 c3 -5 8 -10 11 -10 2 0 4 5 4 10 0 6 -5 10 -11 10 -5 0
-7 -4 -4 -10z"/>
<path d="M1527 1505 c-4 -8 -2 -17 3 -20 6 -4 10 3 10 14 0 25 -6 27 -13 6z"/>
<path d="M1442 1468 c7 -19 38 -22 38 -4 0 10 -9 16 -21 16 -12 0 -19 -5 -17
-12z"/>
<path d="M3105 2280 c-3 -6 1 -7 9 -4 18 7 21 14 7 14 -6 0 -13 -4 -16 -10z"/>
<path d="M3010 2189 c0 -5 5 -7 10 -4 6 3 10 8 10 11 0 2 -4 4 -10 4 -5 0 -10
-5 -10 -11z"/>
<path d="M1600 1410 c-19 -17 -30 -30 -24 -30 5 0 25 13 44 30 19 16 31 29 25
29 -5 0 -26 -13 -45 -29z"/>
<path d="M1448 1373 c17 -2 47 -2 65 0 17 2 3 4 -33 4 -36 0 -50 -2 -32 -4z"/>
<path d="M1930 1260 c8 -15 7 -25 -3 -40 -8 -11 -17 -17 -20 -13 -4 3 -6 -16
-5 -45 1 -28 6 -48 10 -46 4 3 8 -4 8 -15 0 -12 -6 -21 -12 -21 -9 0 -8 -4 2
-10 24 -15 29 -12 26 17 -4 35 24 81 78 131 61 57 64 63 21 60 -26 -2 -32 -6
-22 -13 18 -14 10 -35 -14 -35 -12 0 -19 7 -19 19 0 11 -9 21 -22 25 -36 9
-39 7 -28 -14z m30 -74 c0 -23 -16 -27 -17 -5 -1 10 2 19 8 19 5 0 9 -6 9 -14z"/>
<path d="M1510 1090 c0 -5 5 -10 10 -10 6 0 10 5 10 10 0 6 -4 10 -10 10 -5 0
-10 -4 -10 -10z"/>
<path d="M1480 1081 c0 -5 7 -12 16 -15 14 -5 15 -4 4 9 -14 17 -20 19 -20 6z"/>
<path d="M2787 950 c-3 -11 -1 -20 5 -20 5 0 6 -5 2 -11 -4 -7 -2 -10 5 -8 7
3 12 8 12 12 -1 4 -1 16 -1 27 0 11 -4 20 -9 20 -5 0 -11 -9 -14 -20z"/>
<path d="M2590 861 c0 -13 26 -32 33 -24 8 7 -11 33 -24 33 -5 0 -9 -4 -9 -9z"/>
<path d="M2610 781 c0 -6 -11 -13 -25 -17 -14 -3 -25 -10 -25 -15 0 -5 12 -3
28 3 37 16 46 25 33 32 -6 4 -11 3 -11 -3z"/>
<path d="M2980 4359 c0 -5 61 -152 92 -222 16 -35 26 -46 38 -42 19 6 101 -19
198 -60 65 -27 82 -26 82 4 0 21 -91 105 -162 150 -26 16 -56 39 -67 50 -21
21 -127 91 -138 91 -3 0 -15 7 -25 17 -10 9 -18 14 -18 12z"/>
<path d="M3056 4105 c-3 -9 -12 -12 -23 -8 -14 5 -16 3 -6 -7 14 -16 43 -6 43
15 0 19 -6 19 -14 0z"/>
<path d="M2662 4079 c2 -7 10 -15 17 -17 8 -3 12 1 9 9 -2 7 -10 15 -17 17 -8
3 -12 -1 -9 -9z"/>
<path d="M3595 4051 c-3 -5 -1 -12 5 -16 5 -3 10 1 10 9 0 18 -6 21 -15 7z"/>
<path d="M639 4003 c-13 -16 -12 -17 4 -4 9 7 17 15 17 17 0 8 -8 3 -21 -13z"/>
<path d="M2680 3995 c0 -8 -4 -15 -10 -15 -5 0 -10 -7 -10 -15 0 -12 7 -14 28
-9 53 11 53 12 35 34 -20 24 -43 26 -43 5z"/>
<path d="M2960 3965 c0 -9 9 -15 21 -15 18 0 19 2 9 15 -7 8 -16 15 -21 15 -5
0 -9 -7 -9 -15z"/>
<path d="M2837 3941 c3 -11 14 -22 26 -25 29 -7 29 -4 -3 21 -26 21 -28 21
-23 4z"/>
<path d="M2700 3931 c0 -5 9 -11 19 -14 14 -3 18 -1 14 9 -6 15 -33 19 -33 5z"/>
<path d="M3008 3913 c7 -3 16 -2 19 1 4 3 -2 6 -13 5 -11 0 -14 -3 -6 -6z"/>
<path d="M2872 3888 c5 -15 28 -23 28 -10 0 5 -7 13 -16 16 -10 4 -14 1 -12
-6z"/>
<path d="M2997 3830 c6 -23 7 -24 36 -8 21 11 21 11 2 19 -34 13 -43 10 -38
-11z"/>
<path d="M3903 3594 c-5 -15 14 -93 38 -154 11 -28 77 -82 90 -74 29 18 -16
161 -67 212 -36 36 -52 40 -61 16z"/>
<path d="M3236 3591 c-3 -5 0 -11 7 -14 8 -3 14 1 14 9 0 16 -13 19 -21 5z"/>
<path d="M1284 3552 c-6 -4 -17 -18 -24 -32 l-13 -25 25 23 c13 12 28 19 31
15 4 -3 7 -1 7 5 0 15 -14 22 -26 14z"/>
<path d="M3103 3485 c-36 -38 -33 -54 5 -24 21 16 28 17 39 7 10 -11 10 -20
-5 -50 -9 -21 -23 -37 -29 -38 -15 0 -15 -7 -3 -35 6 -14 9 -15 9 -5 1 9 12
31 25 50 28 41 44 86 27 76 -6 -4 -11 -2 -11 5 0 6 8 9 20 6 11 -3 20 -1 20 3
0 5 -9 12 -20 15 -11 3 -20 11 -20 16 0 18 -26 7 -57 -26z"/>
<path d="M3080 3315 c0 -8 4 -15 10 -15 5 0 7 7 4 15 -4 8 -8 15 -10 15 -2 0
-4 -7 -4 -15z"/>
<path d="M3035 3307 c-6 -7 -10 -19 -10 -27 0 -8 -5 -21 -12 -28 -17 -18 -16
-39 1 -45 8 -3 23 8 36 25 13 17 16 28 9 24 -8 -4 -6 -1 4 8 13 10 17 21 12
35 -7 23 -25 27 -40 8z"/>
<path d="M2940 3230 c0 -5 10 -10 23 -10 18 0 19 2 7 10 -19 13 -30 13 -30 0z"/>
<path d="M506 3176 c-20 -20 -37 -41 -37 -46 -2 -15 -5 -22 -18 -55 -17 -41
-41 -159 -41 -201 0 -44 20 -44 53 -1 34 45 72 140 93 233 15 67 15 78 1 91
-13 13 -19 11 -51 -21z"/>
<path d="M3765 2940 c3 -5 8 -10 11 -10 2 0 4 5 4 10 0 6 -5 10 -11 10 -5 0
-7 -4 -4 -10z"/>
<path d="M3520 2766 c0 -20 12 -56 19 -56 3 0 7 15 8 33 2 24 -1 34 -12 34 -8
0 -15 -5 -15 -11z"/>
<path d="M3586 2758 c14 -48 23 -54 24 -15 0 27 -4 37 -16 37 -11 0 -14 -6 -8
-22z"/>
<path d="M3390 2760 c0 -5 7 -7 16 -3 14 5 15 3 4 -17 l-12 -23 33 23 c19 13
36 25 38 27 2 2 -14 3 -37 3 -23 0 -42 -4 -42 -10z"/>
<path d="M3250 2746 c0 -9 5 -16 10 -16 6 0 10 4 10 9 0 6 -4 13 -10 16 -5 3
-10 -1 -10 -9z"/>
<path d="M272 2645 c-7 -33 -16 -82 -21 -110 -4 -27 -12 -58 -16 -68 -5 -12 0
-36 13 -65 11 -26 23 -55 26 -64 8 -25 25 -22 38 6 8 19 7 57 -6 158 -9 73
-17 149 -19 168 -2 31 -4 28 -15 -25z"/>
<path d="M3899 2599 c-23 -23 -19 -46 15 -92 l21 -29 6 38 c6 34 -5 104 -16
104 -3 0 -14 -9 -26 -21z"/>
<path d="M3260 2533 c0 -26 16 -47 29 -39 7 5 7 14 -1 31 -13 29 -28 33 -28 8z"/>
<path d="M3887 2500 c7 -29 21 -50 34 -50 15 0 10 13 -16 45 -23 29 -24 29
-18 5z"/>
<path d="M705 2290 c-4 -6 -2 -17 4 -23 15 -15 25 -2 13 19 -7 12 -11 13 -17
4z"/>
<path d="M4682 2165 c0 -16 2 -22 5 -12 2 9 2 23 0 30 -3 6 -5 -1 -5 -18z"/>
<path d="M4607 2173 c-4 -3 -7 -11 -7 -17 0 -6 5 -5 12 2 6 6 9 14 7 17 -3 3
-9 2 -12 -2z"/>
<path d="M4563 2126 c19 -19 40 -21 35 -3 -3 6 -15 14 -28 15 -21 4 -22 2 -7
-12z"/>
<path d="M4656 1994 c-10 -31 -16 -58 -14 -60 3 -2 12 21 22 52 10 31 16 58
14 60 -3 2 -12 -21 -22 -52z"/>
<path d="M3910 1980 c0 -5 5 -10 10 -10 6 0 10 5 10 10 0 6 -4 10 -10 10 -5 0
-10 -4 -10 -10z"/>
<path d="M3850 1911 c0 -5 7 -12 16 -15 24 -9 27 -7 10 9 -17 17 -26 19 -26 6z"/>
<path d="M4620 1883 c-23 -58 -23 -61 0 -20 12 21 20 43 18 48 -2 6 -10 -7
-18 -28z"/>
<path d="M3750 1854 c0 -8 5 -12 10 -9 6 4 8 11 5 16 -9 14 -15 11 -15 -7z"/>
<path d="M4556 1742 c-16 -31 -50 -86 -76 -122 -26 -36 -53 -78 -61 -92 -8
-15 -44 -58 -80 -95 -100 -103 -112 -138 -42 -123 36 9 56 29 58 63 2 23 -5
22 -45 -8 -19 -14 -35 -25 -37 -25 -2 0 33 37 77 82 44 45 80 88 80 96 0 9 6
23 14 31 44 48 153 237 144 247 -2 2 -17 -22 -32 -54z"/>
<path d="M4386 1614 c-16 -49 -38 -108 -48 -132 l-18 -43 25 18 c13 10 25 25
25 33 0 8 13 28 29 45 30 30 53 105 33 105 -6 0 -12 14 -14 32 -2 27 -8 17
-32 -58z"/>
<path d="M3275 1621 c-3 -5 -1 -12 5 -16 5 -3 10 1 10 9 0 18 -6 21 -15 7z"/>
<path d="M3775 1590 c3 -5 11 -10 16 -10 6 0 7 5 4 10 -3 6 -11 10 -16 10 -6
0 -7 -4 -4 -10z"/>
<path d="M892 1482 c-7 -5 -10 -16 -6 -27 7 -17 8 -17 21 1 22 30 14 44 -15
26z"/>
<path d="M760 1471 c0 -12 29 -35 36 -28 11 10 -5 37 -21 37 -8 0 -15 -4 -15
-9z"/>
<path d="M630 1303 c0 -5 11 -20 25 -35 14 -15 25 -33 25 -39 0 -7 3 -9 7 -6
3 4 17 -3 30 -15 12 -12 25 -20 27 -17 2 2 -22 30 -55 62 -32 31 -59 54 -59
50z"/>
<path d="M4233 1228 c-33 -13 -53 -27 -53 -37 0 -14 -2 -14 -10 -1 -8 12 -9
10 -9 -10 1 -14 5 -38 9 -55 l8 -30 1 32 c1 24 5 31 16 27 8 -3 27 3 42 14 15
10 34 17 41 15 7 -3 12 4 12 19 0 13 5 29 12 36 18 18 -8 14 -69 -10z"/>
<path d="M4086 1171 c-23 -9 -9 -21 28 -25 18 -2 22 1 18 16 -5 19 -15 21 -46
9z"/>
<path d="M4018 1143 c7 -3 16 -2 19 1 4 3 -2 6 -13 5 -11 0 -14 -3 -6 -6z"/>
<path d="M4097 1111 c-3 -14 -1 -18 9 -14 8 3 14 11 14 19 0 21 -17 17 -23 -5z"/>
<path d="M4141 1055 c-1 -42 -41 -80 -41 -39 0 9 -5 12 -12 8 -10 -6 -10 -4 0
8 11 14 10 18 -9 28 -20 12 -21 11 -15 -16 4 -16 14 -34 22 -40 7 -6 14 -18
14 -25 0 -8 7 -24 15 -35 8 -12 11 -24 8 -28 -3 -3 2 -15 12 -26 18 -19 17
-20 -1 -21 -16 0 -15 -2 5 -10 l24 -10 -34 -33 c-22 -22 -36 -30 -41 -23 -5 8
-9 6 -14 -6 -3 -9 -10 -14 -16 -11 -5 3 -7 12 -5 19 4 10 0 10 -19 1 -25 -11
-34 -59 -14 -71 16 -10 12 -45 -5 -45 -28 0 -57 39 -50 67 9 39 -15 23 -33
-20 -14 -36 -13 -39 5 -60 11 -12 18 -28 16 -35 -3 -7 2 -24 11 -38 17 -24 17
-25 -10 -18 -20 5 -25 4 -22 -7 3 -8 9 -13 14 -12 38 6 80 5 84 -2 5 -11 -96
-24 -108 -15 -5 3 -14 37 -21 75 -18 91 -54 162 -93 183 -17 9 -46 29 -63 45
-18 15 -36 27 -40 27 -15 0 28 -40 75 -70 26 -17 50 -39 53 -50 7 -28 -1 -107
-15 -146 -11 -31 -10 -36 10 -57 19 -19 36 -23 107 -26 78 -3 90 -1 152 29 79
37 102 55 98 78 -12 61 -17 71 -35 77 -27 9 -26 41 3 49 37 10 47 7 47 -14 0
-11 5 -20 11 -20 5 0 7 -6 3 -12 -10 -16 -13 -48 -4 -48 18 0 60 59 60 84 0
29 -38 106 -52 106 -4 0 -8 7 -8 15 0 8 -6 29 -14 47 -8 18 -23 65 -34 103
-15 51 -21 62 -21 40z m-282 -411 c-13 -60 -11 -70 19 -84 22 -11 24 -14 9
-18 -10 -2 -29 4 -43 12 -23 16 -24 18 -9 52 8 20 15 55 16 78 0 33 2 37 9 20
5 -12 5 -38 -1 -60z m174 -4 c-7 -28 -13 -25 -13 6 0 14 4 23 9 20 5 -3 7 -15
4 -26z m88 -50 c-22 -19 -41 -26 -41 -15 0 5 51 34 60 34 3 0 -6 -9 -19 -19z"/>
<path d="M4180 1049 c0 -42 34 -129 85 -216 54 -94 53 -99 -24 -170 -25 -24
-41 -43 -35 -43 7 0 35 23 64 51 47 46 52 54 47 85 -3 18 -21 57 -41 86 -19
29 -48 94 -65 143 -17 50 -31 78 -31 64z"/>
<path d="M3606 1015 c19 -30 26 -28 17 3 -3 12 -12 22 -19 22 -12 0 -11 -5 2
-25z"/>
<path d="M3773 916 c1 -11 9 -21 17 -23 10 -3 11 -2 4 4 -6 4 -14 15 -17 23
-5 11 -6 9 -4 -4z"/>
<path d="M910 885 c0 -8 2 -15 4 -15 2 0 6 7 10 15 3 8 1 15 -4 15 -6 0 -10
-7 -10 -15z"/>
<path d="M878 841 c-2 -16 -1 -37 3 -47 5 -13 8 -3 8 29 1 53 -5 62 -11 18z"/>
<path d="M3854 835 c-6 -15 11 -69 29 -92 10 -14 47 0 47 18 0 6 -4 8 -8 5 -5
-3 -17 15 -27 40 -19 46 -32 55 -41 29z"/>
<path d="M1028 825 c-11 -18 16 -80 37 -84 19 -3 19 -3 2 17 -10 11 -22 33
-26 48 -4 16 -10 24 -13 19z"/>
<path d="M890 759 c0 -20 112 -139 131 -139 8 0 2 8 -13 18 -31 21 -72 64 -99
107 -12 19 -19 24 -19 14z"/>
<path d="M1100 716 c0 -2 8 -10 18 -17 15 -13 16 -12 3 4 -13 16 -21 21 -21
13z"/>
<path d="M1070 700 c-12 -7 -12 -10 3 -16 21 -8 29 -3 19 13 -5 8 -13 9 -22 3z"/>
<path d="M1120 641 c0 -5 -8 -12 -17 -14 -14 -4 -13 -5 4 -6 12 0 24 -7 26
-13 3 -7 6 -3 6 9 1 12 -3 25 -9 28 -5 3 -10 2 -10 -4z"/>
</g>
</svg>
